<?xml version="1.0" standalone="no"?>
<!DOCTYPE svg PUBLIC "-//W3C//DTD SVG 20010904//EN"
 "http://www.w3.org/TR/2001/REC-SVG-20010904/DTD/svg10.dtd">
<svg version="1.0" xmlns="http://www.w3.org/2000/svg"
 width="700.000000pt" height="604.000000pt" viewBox="0 0 700.000000 604.000000"
 preserveAspectRatio="xMidYMid meet">

<g transform="translate(0.000000,604.000000) scale(0.100000,-0.100000)"
fill="#000000" stroke="none">
<path d="M2986 4513 c-3 -21 -6 -58 -6 -82 0 -58 -8 -48 -20 25 l-9 59 5 -65
c3 -36 6 -77 8 -92 1 -15 -1 -25 -6 -22 -14 9 -9 -9 10 -30 16 -20 16 -20 0
-7 -23 17 -23 3 -1 -21 9 -10 11 -18 5 -18 -6 0 -23 17 -36 37 -14 20 -32 38
-41 39 -8 1 -13 -2 -9 -7 3 -5 10 -6 16 -3 7 5 9 1 5 -9 -4 -11 11 -39 43 -82
27 -36 46 -65 42 -65 -4 0 -24 21 -45 48 -20 26 -44 56 -53 67 -10 14 -10 9 3
-13 10 -18 40 -58 67 -88 26 -30 46 -57 44 -60 -6 -5 -70 63 -105 111 -12 17
-23 25 -23 18 0 -6 36 -50 80 -97 76 -79 109 -133 74 -119 -26 10 -14 -6 23
-32 21 -14 33 -25 27 -25 -11 0 -110 66 -155 104 -14 11 -5 1 20 -23 25 -24
79 -66 118 -93 40 -27 73 -51 73 -53 0 -15 -125 61 -176 106 -52 47 -54 48
-19 10 45 -49 103 -91 190 -139 33 -18 49 -30 35 -27 -23 7 -113 57 -187 106
-18 11 -33 19 -33 16 0 -8 115 -81 195 -124 44 -23 73 -43 65 -43 -21 0 -111
43 -168 80 -40 27 -43 28 -17 5 17 -14 72 -46 122 -71 51 -26 91 -50 88 -54
-3 -5 0 -10 7 -13 7 -2 0 -3 -17 -1 -20 2 -13 -2 20 -13 42 -13 47 -17 30 -24
-11 -4 -27 -8 -35 -8 -13 1 -13 1 0 6 9 4 -3 13 -35 24 -28 10 -41 18 -30 19
13 1 7 6 -19 16 -22 8 -42 12 -44 9 -3 -3 0 -5 7 -5 7 0 10 -4 7 -9 -4 -5 4
-7 16 -4 17 4 20 2 9 -5 -11 -8 -5 -13 28 -23 23 -7 37 -15 31 -19 -17 -10 27
-20 64 -14 24 3 26 2 11 -4 -18 -8 -16 -10 15 -17 19 -4 29 -10 23 -12 -24 -8
-13 -22 20 -25 31 -3 30 -4 -22 -20 -97 -32 -139 -26 -373 58 -117 42 -276
102 -353 134 -151 63 -372 136 -524 175 -140 35 -250 48 -396 48 -222 0 -422
-46 -614 -139 -98 -48 -124 -66 -195 -137 -83 -82 -161 -189 -172 -234 -18
-69 59 -193 120 -193 23 0 38 -8 59 -35 31 -38 90 -60 137 -50 21 5 37 0 59
-15 33 -25 92 -39 169 -40 71 0 103 -19 135 -79 27 -50 50 -72 116 -114 30
-19 37 -32 52 -91 21 -83 41 -112 100 -147 34 -19 50 -39 72 -83 36 -75 106
-143 164 -159 35 -9 48 -19 68 -53 23 -39 66 -82 102 -102 14 -8 12 -17 -16
-73 -17 -35 -33 -84 -36 -109 -8 -65 35 -135 115 -190 40 -27 67 -55 81 -83
12 -23 49 -70 83 -103 34 -34 82 -84 107 -112 35 -38 58 -54 98 -66 30 -9 70
-31 92 -50 79 -72 157 -93 230 -62 22 9 48 11 74 7 67 -12 104 3 330 135 109
64 170 114 194 163 25 48 79 226 87 285 4 25 10 46 14 46 4 0 10 -21 14 -46 8
-59 62 -237 87 -285 24 -49 85 -99 194 -163 226 -132 263 -147 330 -135 26 4
52 2 74 -7 76 -32 172 -2 245 75 17 17 39 31 50 31 44 0 108 43 157 105 27 34
65 75 84 90 20 14 50 51 67 81 22 39 47 66 89 95 116 78 140 167 80 293 -29
60 -31 70 -18 78 36 20 79 63 102 102 20 34 33 44 68 53 58 16 128 84 165 160
21 45 37 63 69 81 56 31 82 69 102 150 15 57 22 70 52 89 66 42 89 64 116 114
33 61 64 79 140 79 75 1 129 13 164 39 22 17 37 20 67 15 49 -8 103 14 133 55
17 23 31 31 55 31 61 0 138 124 120 193 -11 45 -89 152 -172 234 -73 73 -96
89 -206 142 -257 125 -571 165 -868 113 -158 -28 -420 -109 -630 -193 -96 -39
-263 -103 -370 -143 -187 -68 -198 -71 -280 -70 -59 1 -94 6 -115 17 l-30 17
35 1 c30 0 33 2 17 12 -15 11 -11 14 35 28 l53 17 -35 8 c-35 7 -34 8 40 31
81 24 104 28 80 13 -8 -5 -10 -10 -5 -10 6 0 17 5 25 10 13 9 13 10 0 10 -8 1
-1 8 15 16 34 16 22 14 -52 -10 -34 -11 -58 -14 -68 -8 -13 7 5 19 77 54 51
25 104 55 118 67 l25 23 -30 -20 c-53 -35 -156 -83 -168 -79 -7 2 13 16 44 30
60 29 179 103 179 112 0 3 -18 -7 -40 -21 -65 -43 -55 -22 13 28 34 25 71 56
82 69 11 12 -9 0 -44 -28 -67 -54 -159 -109 -167 -100 -3 3 25 25 63 49 37 25
93 68 123 97 l55 53 -53 -45 c-29 -24 -72 -54 -95 -67 -50 -27 -44 -20 43 47
36 28 76 64 90 80 25 28 24 28 -10 -3 -62 -53 -76 -59 -35 -13 23 24 47 53 55
65 8 11 1 5 -17 -14 -17 -18 -49 -49 -70 -68 -24 -21 -31 -31 -18 -27 21 7 21
5 -9 -17 -11 -8 -17 -10 -13 -3 4 6 1 13 -5 16 -8 2 3 19 29 43 49 46 123 135
123 148 0 5 -13 -9 -29 -30 -35 -48 -101 -112 -101 -98 0 6 16 26 36 45 37 35
94 111 94 126 0 4 -12 -10 -26 -30 -14 -21 -28 -36 -31 -34 -3 3 7 22 20 42
14 21 23 44 20 53 -4 8 -2 13 3 9 5 -3 10 3 10 13 0 11 -1 18 -2 17 -15 -16
-70 -106 -59 -97 24 20 17 -2 -11 -34 -14 -15 -28 -25 -32 -21 -4 3 1 12 11
19 19 15 24 31 5 20 -7 -5 -5 3 4 16 10 14 23 34 29 45 12 20 12 20 -12 0 -13
-11 -18 -13 -11 -5 6 8 12 18 12 23 0 4 -6 5 -12 1 -10 -6 -10 -4 -3 7 6 8 11
50 12 94 1 73 0 75 -6 23 -9 -81 -21 -83 -21 -2 0 38 -4 74 -8 81 -4 7 -7 -20
-5 -60 1 -52 0 -64 -6 -42 -12 43 -13 7 -1 -55 12 -66 6 -77 -11 -20 -7 24
-15 38 -16 33 -2 -6 5 -34 16 -64 11 -29 18 -55 16 -57 -5 -6 -35 60 -36 80
-1 20 -27 -54 -28 -77 l0 -20 10 20 c7 15 8 11 4 -16 -3 -19 0 -50 6 -67 6
-17 9 -37 6 -44 -2 -7 -11 10 -20 37 -19 60 -21 49 -6 -29 9 -40 9 -60 1 -68
-7 -7 -12 6 -16 43 -12 107 -13 113 -14 64 -1 -27 3 -70 8 -95 5 -28 4 -52 -2
-63 -14 -27 -17 -19 -33 69 l-13 79 5 -96 c7 -130 -8 -152 -24 -34 l-11 90 1
-107 c1 -74 -2 -111 -11 -120 -9 -9 -12 -3 -13 33 0 24 -4 67 -9 94 -7 43 -8
36 -8 -50 0 -128 0 -127 -12 -120 -5 3 -11 48 -11 98 -1 80 -3 85 -9 42 -4
-27 -5 -79 -2 -115 6 -79 -8 -72 -25 13 l-12 62 4 -82 c2 -47 0 -85 -5 -88 -6
-4 -10 26 -11 77 -1 72 -2 78 -10 43 -4 -22 -6 -65 -2 -95 4 -39 2 -52 -5 -45
-6 6 -13 39 -15 75 -4 64 -4 64 -3 -10 0 -89 -17 -105 -25 -23 -6 57 -6 57 -7
-21 -2 -86 -7 -92 -22 -25 -9 43 -9 43 -5 -13 4 -68 -8 -76 -23 -15 -11 42
-11 42 -6 4 3 -21 8 -46 11 -55 11 -30 -12 -2 -25 31 -12 32 -12 30 3 -43 5
-22 4 -22 -10 5 -14 27 -15 28 -11 5 5 -25 4 -25 -59 -25 -58 0 -65 2 -66 20
0 17 -2 16 -10 -5 -15 -38 -30 -6 -24 55 4 46 1 43 -11 -12 -2 -13 -9 -23 -14
-23 -5 0 -8 6 -6 13 9 29 14 111 6 92 -5 -11 -9 -32 -9 -47 -1 -15 -6 -30 -12
-34 -8 -4 -9 14 -4 62 4 50 3 65 -4 54 -6 -8 -11 -32 -11 -52 0 -21 -5 -38
-11 -38 -8 0 -10 24 -6 78 l6 77 -13 -70 c-15 -81 -17 -78 -18 25 0 41 -2 57
-4 35 -13 -132 -32 -137 -28 -8 2 84 1 82 -12 -14 -10 -83 -23 -42 -19 65 4
107 0 102 -11 -16 -9 -96 -24 -63 -25 56 -2 106 -4 104 -15 -16 -9 -99 -24
-62 -26 66 -1 64 -3 95 -5 67 -5 -91 -14 -136 -24 -129 -7 4 -8 44 -5 108 4
85 4 91 -4 38 -11 -80 -19 -104 -31 -96 -6 3 -8 39 -5 87 5 78 3 77 -10 -2 -4
-23 -9 -30 -16 -23 -7 7 -7 26 2 61 6 28 10 56 7 63 -4 8 -6 7 -6 -4 -1 -24
-21 -72 -27 -65 -3 2 2 30 11 60 13 46 14 63 4 102 l-12 47 -13 -32 c-18 -42
-17 -64 1 -25 17 37 19 16 4 -36 -16 -52 -28 -40 -24 21 2 28 0 48 -4 45 -5
-2 -2 28 5 68 17 89 17 104 -2 52 -13 -40 -13 -39 -8 33 6 77 1 96 -10 35z
m1011 -282 c-5 -19 -26 28 -33 74 -5 25 -2 23 16 -14 11 -25 19 -52 17 -60z
m93 69 c-6 -11 -13 -20 -16 -20 -2 0 0 9 6 20 6 11 13 20 16 20 2 0 0 -9 -6
-20z m-1100 -84 c0 -15 -43 30 -64 66 -17 29 -14 28 22 -12 23 -25 41 -49 42
-54z m50 4 c-6 -23 -14 -40 -17 -36 -3 3 1 26 8 51 17 56 25 43 9 -15z m939
-20 c1 -13 0 -13 -9 0 -5 8 -9 24 -9 35 l0 20 9 -20 c5 -11 9 -27 9 -35z m61
-5 c-13 -14 -28 -25 -34 -25 -5 0 3 13 19 30 16 16 31 28 33 25 3 -3 -5 -16
-18 -30z m-2079 -209 c176 -36 399 -102 629 -186 392 -144 551 -200 570 -200
25 0 25 -9 3 -26 -16 -11 -13 -12 17 -4 l34 10 -49 -46 c-30 -27 -38 -38 -20
-26 57 36 60 35 19 -9 -78 -85 -68 -83 20 4 79 77 96 89 155 108 104 33 194
35 293 9 81 -21 89 -26 174 -103 49 -44 74 -64 55 -44 -39 42 -36 57 6 32 18
-11 12 -3 -17 24 -37 33 -41 41 -25 41 11 1 14 4 8 7 -24 9 -13 20 26 27 22 3
185 59 363 125 485 178 653 229 897 270 258 44 486 16 758 -94 159 -64 317
-196 369 -309 28 -60 30 -91 8 -146 -18 -45 -54 -68 -94 -62 -24 4 -24 4 8 17
41 18 67 70 58 116 -9 48 -96 159 -170 218 -218 174 -609 276 -869 227 -178
-34 -535 -149 -807 -259 -47 -19 -120 -43 -162 -53 -43 -10 -76 -19 -74 -21 9
-9 187 32 254 58 40 16 74 29 76 29 1 0 1 -15 -1 -32 -4 -33 -4 -33 15 8 19
39 25 43 128 81 109 41 245 82 287 87 12 1 35 8 52 15 22 9 36 9 54 1 27 -12
43 -4 21 10 -12 8 -10 10 10 11 40 3 44 4 59 13 9 6 19 2 30 -12 19 -25 63
-20 59 7 -2 12 6 17 34 19 42 4 67 -13 60 -40 -3 -12 1 -18 12 -18 9 0 13 6
10 14 -18 48 56 76 96 36 23 -23 25 -41 8 -58 -9 -9 -8 -12 5 -12 10 0 17 8
17 18 0 30 29 62 56 62 34 0 88 -54 81 -80 -3 -11 -1 -20 4 -20 5 0 9 9 9 20
0 38 67 53 119 25 31 -15 45 -58 30 -87 -12 -22 -11 -58 1 -58 6 0 10 6 10 14
0 24 54 76 85 81 23 5 42 -2 83 -30 30 -19 58 -35 63 -35 4 0 6 -7 3 -15 -4
-9 0 -15 10 -15 9 0 19 -14 25 -32 5 -18 10 -27 10 -20 1 6 6 12 12 12 20 0
-10 -27 -37 -34 -14 -4 -22 -11 -19 -16 4 -6 13 -7 23 -2 15 7 26 8 50 3 4 -1
-11 -8 -33 -16 -25 -9 -43 -11 -49 -5 -6 6 -14 6 -22 -1 -9 -7 -19 -7 -34 1
-15 8 -20 8 -18 -1 2 -7 -17 -17 -42 -24 -25 -7 -74 -24 -109 -37 l-64 -25
-91 42 c-50 23 -102 45 -116 49 -14 3 21 -16 78 -44 96 -46 120 -70 72 -70
-20 0 -90 -63 -90 -80 0 -6 -27 4 -60 22 -33 17 -62 29 -65 26 -3 -3 13 -13
35 -23 22 -10 40 -22 40 -26 0 -4 -15 -12 -33 -18 -49 -17 -102 -65 -137 -126
-36 -64 -48 -67 -121 -29 -28 14 -53 23 -56 20 -3 -2 17 -16 43 -29 l48 -25
-53 -27 c-73 -36 -97 -63 -116 -129 -9 -31 -22 -56 -28 -56 -7 0 -52 18 -101
40 -49 22 -91 38 -93 36 -2 -1 38 -22 89 -46 81 -38 90 -44 73 -54 -52 -30
-138 -123 -166 -183 -16 -35 -33 -63 -37 -63 -4 0 -43 18 -87 40 -44 23 -69
32 -55 21 14 -11 49 -32 78 -47 28 -14 52 -30 52 -36 0 -20 -33 -85 -55 -108
-28 -30 -45 -71 -45 -110 0 -16 -4 -31 -8 -34 -11 -7 -153 97 -277 201 -53 45
-135 108 -181 140 -88 60 -164 116 -266 194 -57 44 -108 113 -101 136 2 6 -1
14 -6 18 -6 3 -11 1 -11 -6 0 -7 -6 -4 -14 7 -11 14 -11 21 -3 27 8 6 6 7 -5
3 -12 -3 -24 5 -38 25 -22 30 -23 66 -1 61 7 -1 0 18 -16 45 -27 46 -24 48 29
11 32 -22 45 -23 28 -3 -12 14 -10 15 15 11 21 -4 25 -2 17 6 -15 15 -16 31
-1 22 6 -3 3 5 -6 20 -10 15 -20 24 -23 22 -3 -3 1 -14 9 -23 13 -16 12 -17
-3 -4 -22 17 -23 30 -2 38 9 3 27 -6 45 -23 16 -15 29 -23 29 -18 0 21 -81 81
-119 89 -27 5 -26 1 5 -54 l25 -46 -30 33 c-37 39 -41 32 -6 -10 33 -39 25
-46 -20 -18 -20 12 -38 20 -41 17 -3 -3 6 -25 20 -50 30 -51 24 -71 -8 -25
-50 75 -62 36 -23 -80 33 -99 32 -139 -2 -72 -30 56 -62 103 -68 97 -2 -3 7
-28 22 -57 29 -58 44 -143 26 -154 -6 -4 -11 -17 -11 -29 0 -18 -2 -19 -10 -7
-8 12 -10 11 -10 -7 0 -12 -10 -34 -23 -50 -13 -15 -26 -36 -30 -45 -3 -10
-11 -18 -16 -18 -6 0 -15 -18 -21 -39 -6 -22 -19 -50 -30 -63 l-20 -23 -20 23
c-11 13 -24 41 -30 63 -6 21 -15 39 -21 39 -5 0 -13 8 -16 18 -4 9 -17 30 -30
45 -13 16 -23 38 -23 50 0 18 -2 19 -10 7 -8 -12 -10 -11 -10 7 0 12 -5 25
-11 29 -18 11 -3 96 26 154 15 29 24 54 22 57 -6 6 -38 -41 -68 -97 -34 -67
-35 -27 -2 72 39 116 27 155 -23 80 -32 -46 -38 -26 -8 25 14 25 23 47 20 50
-3 3 -21 -5 -41 -17 -20 -12 -38 -20 -40 -18 -3 2 6 20 20 38 34 47 31 51 -6
10 l-30 -35 25 46 c31 56 32 59 5 54 -38 -8 -119 -68 -119 -89 0 -5 13 3 29
18 18 17 36 26 45 23 21 -8 20 -21 -1 -38 -15 -13 -15 -12 -4 9 16 30 7 28
-14 -4 -9 -15 -12 -23 -6 -20 15 9 14 -7 -1 -22 -8 -8 -4 -10 17 -6 25 4 27 3
15 -11 -19 -23 -1 -18 36 10 46 35 49 32 18 -20 -16 -28 -21 -45 -13 -43 22 5
22 -30 -1 -61 -14 -20 -26 -28 -38 -25 -11 4 -13 3 -5 -3 8 -6 8 -13 -3 -27
-8 -11 -14 -14 -14 -7 0 7 -5 9 -10 6 -6 -4 -10 -12 -8 -18 4 -25 -43 -96 -79
-118 -20 -13 -59 -43 -86 -67 -28 -24 -82 -64 -121 -90 -89 -57 -210 -148
-302 -228 -90 -79 -225 -175 -236 -168 -4 3 -8 18 -8 34 0 39 -17 80 -45 110
-22 23 -55 88 -55 108 0 6 24 22 53 36 28 15 63 36 77 47 14 12 -4 5 -40 -14
-107 -57 -104 -57 -139 16 -29 60 -113 153 -166 183 -18 10 -10 16 63 49 45
21 81 40 79 41 -2 2 -40 -12 -84 -31 -45 -19 -86 -35 -91 -35 -6 0 -18 25 -27
56 -19 66 -43 93 -116 129 l-53 27 48 25 c26 13 46 27 43 29 -3 3 -28 -6 -56
-20 -73 -38 -85 -35 -121 29 -35 61 -88 109 -137 126 -18 6 -33 14 -33 18 0 4
18 16 40 26 22 10 38 20 35 23 -3 3 -32 -9 -65 -26 l-60 -32 -16 31 c-10 19
-32 38 -60 50 -24 11 -42 24 -40 28 3 4 48 27 101 51 52 24 93 45 91 47 -2 2
-54 -18 -114 -45 l-111 -49 -53 19 c-29 11 -78 28 -108 38 -32 11 -54 24 -52
31 2 9 -1 9 -10 2 -21 -17 -154 0 -143 18 6 8 38 5 55 -6 6 -3 10 -1 10 5 0 6
-11 15 -25 20 -14 5 -25 15 -25 22 0 10 3 10 9 -1 7 -10 11 -5 16 18 3 17 13
31 20 31 9 0 12 6 9 15 -4 8 -1 15 5 15 6 0 36 16 66 36 43 29 60 35 82 29 30
-7 83 -60 83 -82 0 -7 5 -13 10 -13 12 0 13 36 1 58 -15 29 -1 72 30 87 52 28
119 13 119 -25 0 -11 4 -20 9 -20 5 0 7 9 4 20 -7 26 47 80 81 80 27 0 56 -32
56 -62 0 -10 7 -18 17 -18 13 0 14 3 5 12 -17 17 -15 35 8 58 38 38 109 15 98
-33 -2 -6 2 -13 7 -14 6 -2 10 5 10 15 0 29 22 43 62 40 29 -2 37 -7 35 -19
-4 -26 39 -32 61 -8 14 15 22 17 32 9 7 -6 17 -10 21 -9 5 1 20 1 33 0 20 -1
21 -3 11 -16 -15 -18 -9 -19 22 -4 17 7 32 7 53 -2 17 -7 39 -14 50 -15 41 -5
174 -45 284 -86 111 -41 114 -43 133 -85 23 -52 29 -55 18 -8 -4 19 -6 35 -4
35 2 0 36 -13 76 -29 70 -27 244 -68 253 -59 3 2 -30 12 -73 22 -42 10 -122
36 -177 58 -254 102 -516 189 -721 239 -102 26 -281 30 -400 11 -165 -27 -350
-95 -468 -172 -127 -83 -246 -223 -246 -290 0 -34 34 -87 62 -96 22 -7 22 -7
3 -14 -57 -21 -115 68 -97 148 6 23 22 63 37 89 36 62 146 168 218 212 123 73
346 149 502 170 117 16 324 6 466 -23z m-101 -66 c0 -5 -7 -10 -15 -10 -8 0
-15 5 -15 10 0 6 7 10 15 10 8 0 15 -4 15 -10z m3310 0 c0 -5 -7 -10 -15 -10
-8 0 -15 5 -15 10 0 6 7 10 15 10 8 0 15 -4 15 -10z m-1240 -5 c0 -8 -102 -57
-107 -51 -3 2 17 16 44 30 48 25 63 30 63 21z m-163 -151 c-3 -3 -12 -4 -19
-1 -8 3 -5 6 6 6 11 1 17 -2 13 -5z m-34 -51 c-7 -2 -19 -2 -25 0 -7 3 -2 5
12 5 14 0 19 -2 13 -5z m-2724 -132 c8 -5 10 -14 6 -21 -6 -9 -4 -11 6 -4 21
13 40 14 32 1 -4 -7 0 -8 11 -4 9 4 15 3 12 -2 -7 -10 77 -48 131 -59 l38 -8
-50 -34 c-28 -18 -78 -58 -113 -87 -71 -60 -109 -75 -124 -49 -6 11 -16 15
-29 11 -13 -4 -19 -2 -19 8 0 9 -5 17 -12 19 -24 8 40 128 68 128 9 0 14 7 12
18 -2 11 3 27 11 38 7 10 -18 -14 -56 -53 -38 -40 -72 -73 -75 -73 -7 0 -19
37 -23 73 -2 21 1 27 11 23 9 -3 14 1 14 12 0 10 5 23 11 29 8 8 8 13 0 17 -6
4 -11 0 -11 -8 0 -8 -5 -18 -11 -21 -20 -13 -19 2 2 28 18 24 27 27 82 27 34
0 68 -4 76 -9z m5140 -18 c21 -26 22 -41 2 -28 -6 3 -11 13 -11 21 0 8 -4 14
-10 14 -5 0 -10 -4 -10 -9 0 -6 5 -13 10 -16 6 -3 10 -15 10 -25 0 -11 5 -17
13 -15 8 4 11 -4 10 -22 -2 -35 -13 -73 -21 -73 -4 0 -38 33 -75 73 -38 39
-63 63 -56 53 8 -11 13 -27 11 -36 -2 -10 5 -20 17 -23 11 -2 31 -28 46 -58
25 -48 26 -54 10 -65 -9 -7 -17 -16 -18 -21 -1 -4 -6 -7 -11 -5 -5 2 -17 -5
-27 -13 -24 -23 -45 -14 -125 51 -37 30 -88 69 -113 87 -38 26 -42 32 -26 35
33 5 117 34 112 38 -2 2 -24 -3 -50 -12 -25 -8 -56 -14 -69 -12 -23 4 -23 4 3
15 15 7 53 14 85 16 65 5 97 15 89 27 -6 10 15 7 34 -4 10 -7 12 -5 6 4 -12
20 15 30 82 30 55 0 64 -3 82 -27z m-4957 -38 c26 -3 51 -11 54 -17 10 -15
-61 -5 -106 16 -19 9 -26 14 -15 12 11 -2 41 -7 67 -11z m181 -73 l67 -48 -33
-31 c-17 -17 -61 -51 -96 -77 -51 -37 -71 -46 -105 -46 -101 0 -156 43 -123
94 9 13 27 26 39 28 13 2 23 9 23 17 0 8 9 19 19 25 11 6 28 18 38 27 41 36
68 44 91 29 31 -20 135 -73 117 -60 -8 6 -39 24 -67 41 -29 16 -53 34 -53 39
0 18 14 11 83 -38z m4337 38 c0 -5 -29 -25 -65 -45 -36 -20 -65 -39 -65 -42 0
-4 85 40 127 67 23 15 50 7 91 -29 10 -9 27 -21 38 -27 10 -6 19 -17 19 -25 0
-7 10 -16 23 -19 13 -3 31 -17 39 -32 15 -23 15 -29 2 -44 -21 -25 -73 -44
-123 -44 -36 0 -55 8 -107 46 -35 26 -78 60 -96 77 l-32 30 62 48 c61 46 87
58 87 39z m-4890 -48 c0 -15 -2 -15 -10 -2 -13 20 -13 33 0 25 6 -3 10 -14 10
-23z m5371 1 c-8 -15 -10 -15 -11 -2 0 17 10 32 18 25 2 -3 -1 -13 -7 -23z
m-4649 -116 c36 -40 86 -84 112 -97 25 -14 45 -28 44 -31 -2 -4 -36 -36 -76
-73 -59 -54 -78 -66 -106 -66 -42 0 -80 30 -107 83 -12 23 -34 56 -49 72 -18
20 -27 39 -25 55 2 14 4 28 4 32 1 8 120 98 130 98 3 0 36 -33 73 -73z m4057
27 c34 -25 61 -49 62 -52 0 -4 2 -18 4 -32 2 -16 -7 -35 -25 -55 -15 -16 -37
-49 -49 -72 -27 -53 -65 -83 -107 -83 -28 0 -47 12 -106 66 -40 37 -74 69 -76
73 -1 3 19 17 44 31 26 13 76 57 112 97 37 40 70 73 73 73 4 0 34 -21 68 -46z
m-4012 -22 c26 -21 61 -56 78 -78 l30 -39 -30 19 c-74 48 -162 136 -136 136 5
0 31 -17 58 -38z m3876 14 c-24 -30 -107 -102 -136 -118 -17 -9 -14 -1 14 33
57 70 174 152 122 85z m-100 -226 c47 -46 58 -62 52 -79 -3 -12 -2 -21 3 -21
17 0 11 -94 -9 -137 -15 -31 -30 -45 -60 -57 -39 -16 -42 -16 -77 6 -21 12
-55 39 -77 59 -22 20 -58 48 -81 62 -22 14 -41 33 -41 42 0 9 38 55 84 103 47
48 81 80 77 72 -18 -37 -83 -114 -118 -141 -22 -16 -35 -29 -30 -29 26 0 94
65 134 128 52 82 50 82 143 -8z m-3580 0 c31 -45 65 -81 98 -104 l51 -34 -43
-28 c-24 -15 -62 -43 -84 -63 -22 -20 -56 -47 -77 -59 -35 -22 -38 -22 -77 -6
-30 12 -45 26 -60 57 -20 43 -26 137 -9 137 5 0 6 10 3 21 -6 18 5 34 59 85
37 35 73 64 80 64 7 0 34 -31 59 -70z m110 -74 l42 -49 -42 27 c-37 24 -101
98 -128 146 -12 22 80 -67 128 -124z m1883 16 c25 -26 25 -26 30 -4 6 21 7 20
28 -6 13 -15 25 -35 29 -44 3 -10 11 -18 17 -18 6 0 8 5 4 11 -4 7 -1 10 7 7
19 -7 17 -87 -2 -102 -18 -14 -49 -81 -49 -106 0 -31 -17 -24 -46 20 -21 31
-28 59 -35 127 -5 49 -11 106 -14 128 -2 22 -2 34 1 27 3 -7 17 -25 30 -40z
m-521 -34 c-4 -53 -3 -67 5 -53 9 18 10 18 8 -5 -1 -14 8 -41 20 -60 17 -27
22 -31 22 -15 0 17 2 18 11 5 8 -11 9 -5 4 23 -4 23 -3 37 3 33 5 -3 12 -24
16 -46 3 -22 15 -49 26 -60 11 -11 20 -23 20 -26 0 -3 9 -19 20 -34 11 -15 24
-45 29 -66 9 -37 9 -38 11 -9 4 65 30 -70 35 -185 7 -136 -1 -210 -21 -210 -8
0 -14 -7 -14 -15 0 -8 5 -15 10 -15 6 0 10 -4 10 -10 0 -5 -10 -10 -22 -10
-24 0 -63 -20 -40 -20 6 0 12 -8 11 -17 0 -11 -3 -13 -6 -5 -2 6 -15 12 -28
12 -20 0 -24 6 -28 38 -3 31 -4 28 -5 -15 -2 -40 -5 -51 -16 -47 -9 3 -16 -5
-20 -22 -6 -22 -9 -25 -17 -13 -7 12 -9 11 -9 -3 0 -10 -4 -18 -10 -18 -15 0
-30 36 -20 46 6 6 5 15 0 24 -7 12 -11 8 -16 -18 -4 -22 -11 -31 -20 -28 -8 3
-18 -3 -24 -14 -8 -15 -6 -20 11 -25 15 -5 18 -10 10 -18 -8 -8 -15 -5 -27 11
-8 12 -20 20 -25 17 -5 -3 -6 1 -3 9 4 10 -1 18 -10 22 -25 10 -31 -3 -13 -30
15 -22 15 -25 0 -30 -19 -8 -55 2 -49 13 3 4 1 13 -5 21 -7 13 -9 12 -9 -2 0
-21 -36 -25 -43 -5 -3 7 -6 5 -6 -5 -1 -10 -5 -18 -11 -18 -5 0 -9 -5 -7 -11
1 -6 -4 -14 -11 -16 -7 -3 -11 1 -10 8 2 8 -7 15 -19 17 -45 7 -27 93 39 191
13 21 17 32 8 26 -8 -4 -5 2 8 14 23 23 31 48 10 35 -7 -4 -8 -3 -4 5 4 6 12
9 17 6 5 -4 9 1 9 10 0 8 7 18 15 21 8 4 15 16 15 28 0 16 2 18 9 7 14 -22 44
6 38 36 -2 13 0 26 4 29 5 3 6 16 3 29 -4 17 0 26 13 34 17 8 19 20 17 93 -2
88 -14 149 -34 173 -7 8 -9 15 -4 15 5 0 2 6 -7 13 -23 17 -37 48 -37 80 1 31
16 46 29 26 6 -10 10 -9 15 6 4 11 17 32 30 47 20 25 22 26 27 8 6 -23 27 -27
27 -6 0 8 4 17 9 21 6 3 5 -10 0 -30 -6 -20 -8 -42 -6 -48 2 -7 10 14 17 46 7
31 15 57 17 57 2 0 1 -33 -2 -72z m545 37 c0 -5 -5 -3 -10 5 -5 8 -10 20 -10
25 0 6 5 3 10 -5 5 -8 10 -19 10 -25z m-500 -87 c0 -38 -3 -49 -11 -41 -10 10
-4 93 7 93 2 0 4 -23 4 -52z m412 -40 c-9 -9 -12 1 -11 43 l1 54 11 -43 c7
-31 7 -46 -1 -54z m37 -26 c1 -42 14 -71 56 -123 18 -22 21 -38 20 -104 -1
-69 1 -78 18 -83 15 -4 18 -11 13 -33 -3 -16 -1 -31 3 -34 5 -3 7 -14 4 -25
-6 -24 15 -53 34 -46 7 3 13 -1 13 -8 0 -8 7 -16 15 -20 8 -3 15 -13 15 -21 0
-9 4 -14 9 -10 5 3 13 0 17 -6 4 -8 3 -9 -4 -5 -21 13 -13 -9 30 -79 45 -75
71 -147 61 -170 -3 -9 0 -22 7 -30 11 -13 8 -15 -14 -13 -28 2 -34 13 -13 21
7 3 5 6 -5 6 -16 1 -23 -10 -19 -32 1 -5 -3 -6 -9 -2 -5 3 -10 13 -10 21 0 8
-4 14 -10 14 -5 0 -10 8 -10 18 -1 16 -1 16 -11 0 -11 -20 -39 -13 -39 11 0
13 -2 14 -9 1 -6 -8 -8 -17 -5 -21 7 -12 -25 -19 -47 -11 -19 7 -19 9 -5 21
22 18 21 43 -1 39 -10 -2 -17 -11 -17 -21 1 -9 -4 -17 -12 -17 -7 0 -17 -7
-22 -16 -6 -10 -14 -14 -22 -9 -10 6 -8 11 6 19 11 6 20 16 21 23 3 16 -25 25
-34 10 -5 -7 -13 13 -19 48 -10 51 -12 55 -14 25 -1 -19 -3 -46 -3 -59 -2 -27
-27 -42 -27 -16 0 9 -5 13 -11 10 -6 -4 -13 3 -16 15 -3 13 -11 19 -19 16 -11
-4 -14 7 -16 47 -1 43 -2 46 -5 15 -4 -32 -8 -38 -28 -38 -13 0 -26 -6 -28
-12 -4 -8 -6 -7 -6 4 -1 9 5 18 12 21 6 2 -1 8 -18 12 -52 12 -63 17 -42 22
20 5 23 33 3 33 -23 0 -31 145 -17 293 1 5 7 5 14 1 9 -6 9 -4 -1 8 -11 13
-10 26 2 70 12 44 14 48 16 23 2 -29 2 -28 11 9 5 21 18 51 29 66 11 15 20 31
20 34 0 3 9 15 20 26 11 11 23 38 26 60 4 22 11 43 16 46 6 4 7 -10 3 -33 -5
-28 -4 -34 4 -23 9 13 11 12 11 -5 0 -31 40 39 41 73 0 24 1 25 9 7 5 -11 9
-39 9 -63z m-676 17 c-7 -7 -12 -5 -16 5 -4 9 -2 16 3 16 5 0 7 8 4 18 -2 9 1
7 7 -6 9 -16 9 -26 2 -33z m863 36 c-3 -8 -1 -15 4 -15 5 0 7 -7 3 -16 -9 -23
-26 0 -18 25 3 12 9 21 12 21 3 0 3 -7 -1 -15z m1177 -29 c100 -65 159 -145
137 -187 -6 -11 -9 -23 -6 -28 11 -17 -53 -100 -93 -121 -55 -28 -76 -25 -130
14 -25 18 -73 48 -105 67 l-60 33 29 20 c72 52 103 89 136 160 19 42 35 75 37
76 2 0 26 -15 55 -34z m-3125 -59 c40 -79 68 -109 140 -151 28 -17 9 5 -37 40
-33 25 -61 58 -82 98 -39 73 -25 63 75 -53 l75 -88 -82 -49 c-45 -27 -94 -60
-110 -73 -33 -27 -85 -26 -132 5 -31 20 -87 102 -79 115 3 5 0 18 -6 29 -15
27 8 75 56 121 41 39 112 87 129 88 6 1 29 -37 53 -82z m3008 -6 c-23 -45 -96
-120 -141 -144 -11 -5 5 19 34 54 59 69 123 139 128 139 2 0 -8 -22 -21 -49z
m-2811 -208 c7 -40 31 -87 70 -142 14 -19 25 -46 25 -62 0 -23 -6 -30 -37 -40
-108 -36 -213 3 -258 94 -14 30 -23 60 -20 68 7 18 174 119 196 119 11 0 19
-12 24 -37z m2757 -15 c48 -29 90 -58 93 -66 7 -18 -26 -90 -54 -119 -51 -53
-143 -71 -223 -44 -31 10 -38 17 -38 39 0 25 8 40 62 121 10 14 15 34 12 45
-4 12 -2 16 4 12 7 -4 14 8 18 29 4 22 12 35 22 35 9 0 55 -23 104 -52z m-693
-17 c40 -28 35 -41 -6 -20 -40 21 -113 20 -157 -3 -31 -16 -76 -60 -76 -75 0
-7 -4 -13 -10 -13 -20 0 -9 51 18 81 50 56 173 72 231 30z m-1304 -4 c46 -26
72 -65 61 -93 -8 -18 -8 -18 -16 2 -12 31 -68 70 -118 84 -47 12 -94 6 -129
-16 -14 -8 -23 -10 -23 -4 0 6 15 19 33 30 46 29 139 27 192 -3z m-676 -74
c19 -37 12 -46 -13 -16 -22 27 -56 86 -56 98 0 9 56 -57 69 -82z m2510 35
c-18 -34 -59 -81 -59 -68 0 17 19 52 43 77 25 28 33 23 16 -9z m-567 -12 c37
-8 58 -32 58 -65 0 -46 -32 -65 -115 -69 -84 -5 -115 7 -115 43 0 49 85 111
135 99 6 -1 22 -5 37 -8z m-1281 -34 c35 -39 38 -77 7 -93 -24 -13 -112 -15
-149 -4 -63 19 -79 77 -31 115 23 18 37 21 86 18 51 -4 63 -9 87 -36z m-314
-18 c-3 -3 -12 -4 -19 -1 -8 3 -5 6 6 6 11 1 17 -2 13 -5z m1790 0 c-3 -3 -12
-4 -19 -1 -8 3 -5 6 6 6 11 1 17 -2 13 -5z m-1802 -33 c3 -10 15 -21 25 -24
11 -3 20 -12 20 -21 0 -9 9 -25 20 -36 12 -12 18 -26 14 -33 -4 -7 -4 -9 1 -5
12 12 47 -12 41 -28 -6 -15 9 -20 18 -5 7 11 44 3 52 -11 3 -5 -13 -40 -35
-77 -39 -66 -42 -69 -81 -69 -22 0 -44 -3 -49 -6 -11 -7 -33 18 -24 27 3 4 14
7 24 7 15 0 17 6 13 37 -6 47 -11 52 -20 19 -3 -14 -12 -26 -19 -26 -7 0 -20
-3 -29 -6 -11 -4 -16 0 -16 14 0 12 -9 27 -20 35 -11 8 -17 16 -15 19 3 3 -3
8 -15 11 -11 3 -20 1 -20 -4 0 -5 -5 -9 -11 -9 -8 0 -8 4 1 15 13 16 6 35 -13
35 -7 0 -14 11 -15 25 -1 14 3 25 8 25 6 0 10 -6 10 -14 0 -7 7 -19 16 -27 13
-10 17 -10 26 2 8 12 9 11 5 -2 -3 -9 3 -21 14 -27 18 -11 19 -10 13 14 -5 20
-2 31 10 40 11 8 13 14 7 19 -6 3 -11 1 -11 -5 0 -6 -5 -8 -10 -5 -6 4 -8 11
-5 16 4 5 -1 9 -10 9 -10 0 -15 7 -13 17 4 24 28 28 28 5 0 -25 18 -32 61 -25
38 6 52 13 25 13 -12 0 -16 5 -12 15 3 8 1 15 -4 15 -6 0 -10 8 -10 18 0 10
-3 13 -8 6 -4 -6 -18 -15 -31 -19 -17 -5 -22 -4 -18 6 2 8 10 13 16 11 6 -1
14 5 17 13 8 21 21 19 29 -4z m1819 4 c3 -8 11 -14 17 -13 6 2 14 -3 16 -11 4
-10 -1 -11 -18 -6 -13 4 -27 13 -31 19 -5 7 -8 4 -8 -6 0 -10 -4 -18 -10 -18
-5 0 -7 -7 -4 -15 4 -10 0 -15 -11 -15 -9 0 -14 -3 -11 -8 4 -6 42 -8 84 -3 6
0 12 10 12 22 0 24 23 21 28 -4 2 -10 -3 -17 -13 -17 -9 0 -14 -4 -10 -9 3 -5
1 -12 -5 -16 -5 -3 -10 -1 -10 5 0 6 -5 8 -11 5 -6 -5 -4 -11 7 -19 13 -10 15
-20 10 -41 -6 -25 -5 -27 8 -16 9 8 16 21 16 30 0 13 2 14 9 2 8 -12 12 -12
25 -2 9 8 16 21 16 29 0 12 3 13 12 4 8 -8 8 -15 -3 -28 -9 -12 -9 -15 -2 -10
7 4 20 3 29 -2 11 -6 13 -11 5 -16 -6 -4 -11 -2 -11 5 0 10 -3 10 -11 2 -6 -6
-18 -9 -25 -6 -17 6 -18 -9 -2 -25 9 -9 9 -12 0 -12 -7 0 -12 4 -12 9 0 5 -9
7 -20 4 -11 -3 -17 -10 -14 -15 3 -5 -3 -16 -15 -24 -12 -8 -21 -24 -21 -35 0
-10 -4 -19 -10 -19 -5 0 -10 4 -10 8 0 5 -13 7 -30 4 -31 -4 -42 -22 -14 -22
8 0 12 -4 9 -10 -3 -5 -1 -10 5 -10 6 0 9 -4 6 -9 -7 -11 -104 -7 -116 5 -4 5
-17 25 -29 44 -61 104 -61 104 -6 104 19 0 32 2 30 5 -8 7 27 41 36 35 5 -3 9
2 9 11 0 8 7 18 15 21 8 4 15 17 15 29 0 15 8 26 19 30 11 3 23 15 26 26 8 23
21 25 29 4z m-1834 -45 c0 -5 -4 -10 -10 -10 -5 0 -10 5 -10 10 0 6 5 10 10
10 6 0 10 -4 10 -10z m1840 0 c0 -5 -4 -10 -10 -10 -5 0 -10 5 -10 10 0 6 5
10 10 10 6 0 10 -4 10 -10z m-2186 -99 c7 -6 16 -9 19 -6 4 3 5 2 2 -1 -2 -4
2 -15 9 -26 12 -17 12 -25 -6 -56 -12 -22 -14 -29 -4 -18 9 11 16 23 16 28 0
4 7 8 15 8 8 0 15 -4 15 -10 0 -5 7 -10 15 -10 14 0 51 -58 42 -66 -2 -3 -14
10 -26 28 -11 18 -21 28 -21 23 0 -6 14 -26 31 -45 17 -19 27 -28 23 -20 -5 9
3 6 20 -7 15 -12 49 -29 77 -38 55 -19 156 -108 151 -134 -2 -10 3 -7 13 7 13
17 26 22 61 22 25 0 43 -4 40 -9 -10 -15 59 -51 95 -50 32 1 31 2 -9 8 -23 4
-48 13 -54 19 -14 14 -10 15 28 3 16 -5 41 -12 57 -15 19 -5 27 -13 28 -29 1
-18 2 -16 10 8 7 26 17 33 71 50 39 12 92 20 138 20 41 1 89 4 105 9 22 6 26
5 15 -3 -13 -9 -13 -11 3 -11 9 0 17 3 17 8 0 4 20 7 45 7 38 0 45 -3 46 -20
1 -16 2 -15 8 5 5 20 15 26 46 31 38 6 38 6 8 8 -41 1 -44 21 -3 21 48 0 51
-22 15 -136 -31 -97 -73 -174 -96 -174 -5 0 -18 -8 -29 -17 -10 -10 -32 -26
-49 -36 -30 -17 -31 -17 -31 0 0 14 -3 12 -13 -7 -17 -35 -249 -152 -292 -148
l-30 3 1 148 c1 102 -1 146 -8 139 -6 -6 -12 -35 -13 -64 -1 -29 -8 -90 -15
-136 -11 -75 -15 -84 -41 -97 -57 -30 -107 -15 -180 52 -19 18 -25 31 -22 51
4 21 2 24 -6 12 -9 -13 -11 -13 -11 2 0 9 4 19 9 22 16 10 19 57 5 63 -9 3
-14 20 -13 47 1 22 4 31 6 19 3 -13 12 -23 21 -23 13 0 14 2 3 9 -9 6 -11 21
-7 52 3 24 3 37 -1 29 -3 -8 -12 -20 -19 -27 -6 -7 -20 -55 -29 -108 -10 -52
-22 -95 -27 -95 -37 0 -128 73 -128 102 0 10 -5 18 -11 18 -9 0 -10 34 -5 123
l6 122 -20 -45 c-12 -24 -17 -46 -12 -48 6 -2 5 -22 -3 -52 -7 -27 -10 -51 -7
-54 3 -3 0 -6 -6 -6 -7 0 -12 9 -12 19 0 11 -7 18 -17 17 -9 0 -35 23 -59 54
-35 44 -43 63 -43 95 0 37 25 146 44 189 8 17 6 17 -13 -2 -12 -12 -24 -34
-28 -49 -4 -16 -11 -33 -16 -40 -5 -6 -6 -22 -3 -36 4 -14 2 -28 -4 -31 -7 -5
-8 -1 -4 10 4 12 3 15 -5 10 -7 -4 -12 -14 -12 -22 0 -23 -17 -17 -60 22 -89
80 -96 122 -42 238 l29 61 72 -2 c40 -1 78 -6 85 -12z m2698 -47 c55 -117 48
-154 -46 -242 -44 -41 -51 -44 -54 -27 -2 11 -9 25 -14 30 -8 7 -9 4 -5 -8 4
-11 3 -16 -4 -12 -6 4 -7 19 -4 35 3 15 2 31 -3 34 -5 3 -13 22 -16 41 -4 19
-11 35 -16 35 -5 0 -22 25 -38 55 -26 47 -28 56 -16 73 7 11 10 23 6 27 -4 5
-2 5 4 2 7 -4 16 -1 22 6 7 8 37 12 83 11 l73 -1 28 -59z m-880 27 c26 -6 57
-11 69 -11 12 0 28 -8 36 -17 13 -16 13 -16 7 7 -6 22 -5 23 10 11 9 -8 15
-20 12 -28 -3 -8 -2 -12 2 -9 4 2 19 -16 32 -42 14 -26 27 -49 31 -52 3 -3 11
-15 18 -27 10 -20 9 -23 -6 -24 -10 0 -31 -2 -46 -4 -21 -3 -27 0 -23 10 3 9
-2 13 -14 12 -10 -1 -16 -5 -14 -9 3 -4 0 -8 -7 -8 -8 0 -6 -7 5 -19 10 -11
13 -22 8 -25 -6 -3 -13 0 -15 6 -4 10 -8 10 -15 -1 -11 -15 -27 2 -17 19 4 6
3 10 -2 9 -4 -1 -19 3 -33 8 -19 8 -30 25 -43 66 -9 30 -31 74 -47 98 -34 51
-37 63 -12 50 9 -5 38 -14 64 -20z m-1622 9 c0 -5 -2 -10 -4 -10 -3 0 -8 5
-11 10 -3 6 -1 10 4 10 6 0 11 -4 11 -10z m570 -5 c0 -2 -13 -25 -29 -50 -16
-26 -35 -68 -41 -96 -7 -30 -17 -49 -26 -49 -8 0 -24 -11 -36 -25 -16 -19 -24
-22 -31 -13 -7 11 -10 11 -14 0 -2 -6 -9 -9 -15 -6 -5 3 -2 14 8 25 16 17 16
19 1 19 -10 0 -17 5 -17 10 0 6 -5 10 -11 10 -6 0 -9 -6 -6 -13 4 -10 -6 -13
-37 -13 -35 1 -42 4 -38 18 2 10 10 23 18 29 8 6 14 18 14 25 0 8 8 14 17 14
9 0 14 3 10 6 -8 8 13 65 23 59 4 -3 7 3 6 13 -1 13 6 17 34 15 19 -2 55 4 80
11 45 15 90 20 90 11z m1490 -75 c-6 -12 -16 -17 -26 -13 -14 5 -12 8 7 19 31
17 31 17 19 -6z m230 -12 c28 -45 60 -151 66 -218 4 -53 3 -57 -39 -110 -25
-32 -51 -55 -63 -55 -12 0 -18 -6 -16 -18 2 -9 -3 -17 -9 -17 -7 0 -10 3 -7 6
3 3 0 27 -7 54 -8 31 -9 50 -3 52 6 2 2 19 -8 41 -22 46 -33 31 -23 -31 11
-68 11 -162 -1 -162 -5 0 -10 -8 -10 -18 0 -22 -42 -63 -87 -86 -44 -22 -51
-21 -58 17 -24 126 -38 178 -45 168 -4 -8 -10 4 -14 30 -4 23 -9 39 -12 37 -2
-3 1 -29 7 -58 9 -43 9 -54 -2 -61 -11 -7 -11 -9 3 -9 9 0 19 6 21 13 3 6 6
-2 6 -19 1 -19 -5 -34 -13 -37 -14 -6 -11 -53 5 -63 5 -3 9 -13 9 -22 0 -15
-2 -15 -11 -2 -8 12 -10 9 -6 -12 4 -29 -15 -52 -81 -98 -27 -18 -43 -21 -78
-17 -24 2 -50 10 -58 16 -12 10 -51 211 -46 236 5 22 0 55 -8 55 -5 0 -8 -64
-8 -142 l1 -143 -30 -3 c-21 -2 -66 15 -145 54 -130 64 -150 78 -151 108 -1
19 -2 19 -8 -3 l-6 -23 -48 36 c-26 20 -51 36 -57 36 -21 0 -64 76 -91 162
-41 129 -38 148 22 148 30 0 22 -20 -8 -21 -25 -1 -24 -2 7 -8 25 -4 36 -12
41 -31 6 -20 7 -21 8 -5 1 17 8 20 46 20 25 0 45 -3 45 -7 0 -5 5 -8 11 -8 5
0 7 5 3 11 -5 9 1 9 22 3 16 -5 63 -9 104 -9 78 0 188 -28 203 -52 5 -9 14
-10 25 -4 9 4 31 11 47 14 17 3 39 9 50 13 16 6 18 4 8 -6 -7 -8 -32 -17 -55
-21 l-43 -6 38 -2 c30 -1 45 5 69 29 23 23 39 30 68 30 21 0 41 -4 45 -10 6
-10 35 12 96 71 22 21 55 41 83 49 26 7 49 17 52 21 3 5 10 9 16 9 6 0 1 -11
-12 -25 -13 -14 -21 -25 -19 -25 3 0 23 19 44 42 22 23 32 36 23 29 -23 -18
-23 -10 3 34 15 24 24 32 29 24 5 -8 10 -5 15 10 9 29 22 26 45 -11z m-2201
13 c8 -5 9 -11 3 -15 -14 -8 -43 4 -36 15 7 11 15 11 33 0z m855 -77 c3 -8 2
-12 -4 -9 -6 3 -10 10 -10 16 0 14 7 11 14 -7z m237 -7 c-10 -9 -11 -8 -5 6 3
10 9 15 12 12 3 -3 0 -11 -7 -18z m-276 3 c3 -5 1 -10 -4 -10 -6 0 -11 5 -11
10 0 6 2 10 4 10 3 0 8 -4 11 -10z m325 0 c0 -5 -5 -10 -11 -10 -5 0 -7 5 -4
10 3 6 8 10 11 10 2 0 4 -4 4 -10z m-598 -72 c-7 -7 -12 -8 -12 -2 0 14 12 26
19 19 2 -3 -1 -11 -7 -17z m867 -1 c0 -9 -2 -8 -6 1 -2 6 -10 9 -15 6 -7 -4
-8 -2 -4 5 9 13 26 5 25 -12z m-959 3 c0 -5 -12 -10 -26 -10 -14 0 -23 4 -19
10 3 6 15 10 26 10 10 0 19 -4 19 -10z m349 -51 c-8 -5 -23 -9 -34 -8 -18 0
-17 1 5 13 26 15 52 10 29 -5z m371 6 c18 -10 20 -14 8 -15 -23 0 -48 11 -48
21 0 12 11 11 40 -6z"/>
<path d="M2030 3859 c0 -5 5 -7 10 -4 6 3 10 8 10 11 0 2 -4 4 -10 4 -5 0 -10
-5 -10 -11z"/>
<path d="M4950 3860 c0 -5 5 -10 10 -10 6 0 10 5 10 10 0 6 -4 10 -10 10 -5 0
-10 -4 -10 -10z"/>
<path d="M1420 3809 c0 -5 5 -7 10 -4 6 3 10 8 10 11 0 2 -4 4 -10 4 -5 0 -10
-5 -10 -11z"/>
<path d="M5565 3810 c3 -5 8 -10 11 -10 2 0 4 5 4 10 0 6 -5 10 -11 10 -5 0
-7 -4 -4 -10z"/>
<path d="M1065 3750 c-3 -5 -2 -10 4 -10 5 0 13 5 16 10 3 6 2 10 -4 10 -5 0
-13 -4 -16 -10z"/>
<path d="M5915 3750 c3 -5 8 -10 11 -10 2 0 4 5 4 10 0 6 -5 10 -11 10 -5 0
-7 -4 -4 -10z"/>
<path d="M1882 3720 c-21 -10 -43 -29 -50 -44 -25 -56 -8 -167 32 -205 27 -25
104 -46 140 -37 16 4 35 21 48 41 11 19 24 35 28 35 5 0 7 17 5 37 -2 24 0 32
6 22 7 -12 9 -12 9 2 0 8 -5 20 -12 27 -9 9 -9 12 1 12 10 0 11 3 2 14 -15 17
-4 46 15 39 8 -3 14 -17 14 -31 0 -25 1 -25 14 -7 13 18 11 23 -22 54 -50 46
-98 66 -120 49 -11 -9 -14 -9 -9 -1 11 18 -55 14 -101 -7z m84 -19 c45 -27 74
-94 74 -169 0 -77 -17 -89 -95 -70 -71 19 -97 59 -93 147 3 62 5 67 37 88 41
28 38 28 77 4z m99 -1 c10 -11 14 -20 8 -20 -5 0 -18 9 -28 20 -10 11 -14 20
-8 20 5 0 18 -9 28 -20z"/>
<path d="M1934 3632 c-32 -21 -12 -102 25 -102 28 0 34 15 21 54 -13 39 -31
58 -46 48z"/>
<path d="M4935 3717 c-22 -12 -42 -26 -44 -31 -2 -4 -12 -15 -22 -24 -15 -13
-16 -19 -6 -30 10 -12 13 -11 17 8 3 13 10 25 17 27 15 5 25 -27 13 -42 -8 -9
-7 -15 2 -18 10 -4 10 -6 1 -6 -7 -1 -13 -11 -13 -23 0 -17 3 -19 9 -9 6 9 8
3 6 -19 -2 -32 2 -39 51 -94 28 -32 71 -34 131 -7 51 23 73 63 80 141 7 70
-12 111 -61 134 -42 20 -111 22 -100 4 6 -10 4 -10 -7 0 -18 16 -28 15 -74
-11z m20 -17 c-10 -11 -23 -20 -28 -20 -6 0 -2 9 8 20 10 11 23 20 28 20 6 0
2 -9 -8 -20z m177 -17 c13 -12 18 -31 18 -70 0 -97 -33 -140 -118 -156 -57
-11 -72 4 -72 76 0 77 27 139 71 166 34 21 66 16 101 -16z"/>
<path d="M5040 3625 c-17 -20 -29 -71 -20 -85 12 -19 44 -7 57 21 21 44 -9 98
-37 64z"/>
<path d="M1016 3711 c-4 -7 -5 -15 -2 -18 9 -9 19 4 14 18 -4 11 -6 11 -12 0z"/>
<path d="M5970 3705 c0 -8 4 -15 10 -15 5 0 7 7 4 15 -4 8 -8 15 -10 15 -2 0
-4 -7 -4 -15z"/>
<path d="M5800 3676 c0 -2 7 -7 16 -10 8 -3 12 -2 9 4 -6 10 -25 14 -25 6z"/>
<path d="M1020 3666 c0 -2 7 -7 16 -10 8 -3 12 -2 9 4 -6 10 -25 14 -25 6z"/>
<path d="M5955 3660 c-3 -6 1 -7 9 -4 18 7 21 14 7 14 -6 0 -13 -4 -16 -10z"/>
<path d="M1134 3644 c-18 -14 -18 -15 4 -4 12 6 22 13 22 15 0 8 -5 6 -26 -11z"/>
<path d="M2182 3648 c6 -18 28 -21 28 -4 0 9 -7 16 -16 16 -9 0 -14 -5 -12
-12z"/>
<path d="M4790 3644 c0 -9 5 -14 12 -12 18 6 21 28 4 28 -9 0 -16 -7 -16 -16z"/>
<path d="M2547 3637 c-5 -15 19 -45 32 -39 3 1 6 -4 6 -10 0 -7 -8 -12 -17
-12 -10 1 -18 -2 -18 -7 0 -5 -19 -10 -42 -10 -40 -1 -39 -2 17 -11 33 -5 68
-17 78 -25 15 -15 17 -15 17 1 0 9 6 16 13 15 6 -1 66 0 132 1 99 2 111 4 70
10 -27 5 -74 9 -102 9 -29 1 -53 6 -53 11 0 6 -11 10 -24 10 -23 0 -70 30 -92
59 -9 12 -12 11 -17 -2z"/>
<path d="M4430 3628 c0 -6 -3 -9 -6 -6 -3 3 -16 -5 -29 -18 -13 -13 -31 -24
-40 -24 -8 0 -23 -4 -33 -9 -9 -6 -60 -14 -112 -19 l-95 -9 120 -3 c66 -2 126
-3 133 -3 6 1 12 -6 12 -15 0 -13 2 -13 18 1 9 8 44 20 77 25 56 9 57 10 18
11 -24 0 -43 5 -43 10 0 5 -8 8 -17 7 -10 0 -18 6 -18 14 0 8 7 15 15 15 8 0
16 8 18 18 2 9 -1 17 -7 17 -6 0 -11 -5 -11 -12z"/>
<path d="M2878 3623 c6 -2 18 -2 25 0 6 3 1 5 -13 5 -14 0 -19 -2 -12 -5z"/>
<path d="M4098 3623 c6 -2 18 -2 25 0 6 3 1 5 -13 5 -14 0 -19 -2 -12 -5z"/>
<path d="M2948 3613 c7 -3 16 -2 19 1 4 3 -2 6 -13 5 -11 0 -14 -3 -6 -6z"/>
<path d="M3461 3579 l-22 -44 24 29 c18 21 26 25 31 15 5 -12 7 -12 12 0 5 10
13 6 31 -15 l24 -29 -22 44 c-16 33 -23 41 -30 30 -8 -12 -10 -12 -18 0 -7 11
-14 3 -30 -30z"/>
<path d="M4028 3613 c6 -2 18 -2 25 0 6 3 1 5 -13 5 -14 0 -19 -2 -12 -5z"/>
<path d="M3390 3575 c-19 -19 -29 -35 -24 -35 6 0 25 16 44 35 19 19 29 35 24
35 -6 0 -25 -16 -44 -35z"/>
<path d="M3590 3575 c19 -19 38 -35 44 -35 5 0 -5 16 -24 35 -19 19 -38 35
-44 35 -5 0 5 -16 24 -35z"/>
<path d="M3270 3555 c-18 -19 -31 -37 -29 -40 3 -2 23 13 44 35 22 22 35 40
29 40 -6 0 -25 -16 -44 -35z"/>
<path d="M3711 3553 c18 -21 35 -40 37 -42 1 -2 5 -2 8 1 7 8 -55 78 -69 78
-6 0 5 -17 24 -37z"/>
<path d="M3323 3556 c-15 -13 -25 -28 -20 -32 4 -4 21 7 38 24 37 37 23 43
-18 8z"/>
<path d="M3659 3548 c17 -17 34 -28 38 -24 5 4 -5 19 -22 32 -43 34 -53 30
-16 -8z"/>
<path d="M4290 3439 c0 -5 5 -7 10 -4 6 3 10 8 10 11 0 2 -4 4 -10 4 -5 0 -10
-5 -10 -11z"/>
<path d="M2663 3428 c7 -20 -29 -88 -46 -88 -15 0 -137 -57 -137 -64 0 -7 38
7 87 32 57 29 94 34 127 17 15 -8 29 -15 30 -15 2 0 1 13 -2 29 -5 33 11 45
108 76 71 24 51 31 -26 9 -75 -21 -100 -21 -126 2 -20 17 -21 17 -15 2z"/>
<path d="M4198 3407 c83 -32 84 -32 80 -64 -5 -38 -5 -38 27 -17 29 19 64 12
158 -30 32 -15 56 -22 53 -17 -3 5 -39 23 -80 41 -60 27 -77 39 -88 64 -7 17
-11 38 -9 46 2 11 -2 11 -17 -4 -26 -23 -51 -23 -125 -2 -91 25 -90 18 1 -17z"/>
<path d="M2730 3275 c0 -5 9 -25 20 -43 11 -18 20 -40 20 -49 0 -9 -57 -72
-127 -140 -95 -92 -107 -107 -48 -56 139 120 162 136 205 136 22 0 52 -8 67
-17 l28 -17 -22 20 c-24 20 -30 55 -13 66 6 3 10 12 10 20 0 10 -7 11 -27 6
-34 -9 -68 10 -94 54 -11 16 -19 26 -19 20z"/>
<path d="M4261 3269 c-1 -9 -16 -30 -35 -47 -37 -34 -58 -34 -111 0 -28 18
-28 18 -10 1 11 -10 29 -34 39 -52 l19 -34 -34 -30 -34 -29 33 22 c55 37 100
31 170 -23 33 -26 84 -68 113 -94 140 -125 85 -68 -138 142 -45 43 -48 62 -15
112 7 12 12 28 9 35 -4 9 -6 8 -6 -3z"/>
<path d="M3441 3193 c-22 -83 -20 -108 4 -49 16 38 32 126 23 126 -3 0 -15
-35 -27 -77z"/>
<path d="M3535 3222 c6 -46 32 -118 40 -111 6 6 -24 120 -37 139 -6 10 -7 1
-3 -28z"/>
<path d="M3206 3241 c-4 -5 -2 -12 3 -15 5 -4 12 -2 15 3 4 5 2 12 -3 15 -5 4
-12 2 -15 -3z"/>
<path d="M3386 3199 c-28 -61 -44 -120 -29 -104 16 17 67 145 60 152 -4 3 -18
-18 -31 -48z"/>
<path d="M3580 3243 c0 -14 50 -134 62 -147 14 -17 9 10 -12 67 -21 55 -49
101 -50 80z"/>
<path d="M3775 3241 c-3 -5 -1 -12 5 -16 5 -3 10 1 10 9 0 18 -6 21 -15 7z"/>
<path d="M3490 3185 c0 -25 5 -45 10 -45 6 0 10 20 10 45 0 25 -4 45 -10 45
-5 0 -10 -20 -10 -45z"/>
<path d="M4038 3054 c-27 -13 -48 -27 -48 -29 0 -3 23 6 50 20 28 14 50 28 50
30 0 7 1 7 -52 -21z"/>
<path d="M2937 3059 c7 -7 15 -10 18 -7 3 3 -2 9 -12 12 -14 6 -15 5 -6 -5z"/>
<path d="M945 3459 c-10 -15 3 -25 16 -12 7 7 7 13 1 17 -6 3 -14 1 -17 -5z"/>
<path d="M920 3376 c0 -15 18 -31 26 -23 7 7 -7 37 -17 37 -5 0 -9 -6 -9 -14z"/>
<path d="M6035 3450 c3 -5 10 -10 16 -10 5 0 9 5 9 10 0 6 -7 10 -16 10 -8 0
-12 -4 -9 -10z"/>
<path d="M6056 3374 c-4 -9 -4 -19 -2 -21 8 -8 26 8 26 23 0 19 -16 18 -24 -2z"/>
<path d="M1090 3320 c0 -5 5 -10 10 -10 6 0 10 5 10 10 0 6 -4 10 -10 10 -5 0
-10 -4 -10 -10z"/>
<path d="M1120 3299 c0 -5 5 -7 10 -4 6 3 10 8 10 11 0 2 -4 4 -10 4 -5 0 -10
-5 -10 -11z"/>
<path d="M5890 3320 c0 -5 5 -10 10 -10 6 0 10 5 10 10 0 6 -4 10 -10 10 -5 0
-10 -4 -10 -10z"/>
<path d="M5865 3300 c3 -5 8 -10 11 -10 2 0 4 5 4 10 0 6 -5 10 -11 10 -5 0
-7 -4 -4 -10z"/>
<path d="M1350 3260 c0 -5 5 -10 10 -10 6 0 10 5 10 10 0 6 -4 10 -10 10 -5 0
-10 -4 -10 -10z"/>
<path d="M5630 3260 c0 -5 5 -10 10 -10 6 0 10 5 10 10 0 6 -4 10 -10 10 -5 0
-10 -4 -10 -10z"/>
<path d="M5330 3110 c0 -5 5 -10 10 -10 6 0 10 5 10 10 0 6 -4 10 -10 10 -5 0
-10 -4 -10 -10z"/>
<path d="M1650 3110 c0 -5 5 -10 10 -10 6 0 10 5 10 10 0 6 -4 10 -10 10 -5 0
-10 -4 -10 -10z"/>
<path d="M3762 3055 c0 -11 3 -29 8 -40 11 -25 11 1 0 35 -6 20 -8 21 -8 5z"/>
<path d="M3870 2956 c0 -9 7 -16 16 -16 17 0 14 22 -4 28 -7 2 -12 -3 -12 -12z"/>
<path d="M3107 2963 c-12 -11 -8 -23 8 -23 8 0 15 7 15 15 0 16 -12 20 -23 8z"/>
<path d="M3242 2925 c0 -16 2 -22 5 -12 2 9 2 23 0 30 -3 6 -5 -1 -5 -18z"/>
<path d="M3227 2853 l-18 -38 20 25 c18 22 28 50 18 50 -2 0 -11 -17 -20 -37z"/>
<path d="M3310 2866 c0 -7 66 -121 90 -156 6 -8 1 4 -10 27 -23 49 -80 141
-80 129z"/>
<path d="M3189 2793 c-13 -16 -12 -17 4 -4 9 7 17 15 17 17 0 8 -8 3 -21 -13z"/>
<path d="M3241 2793 c-1 -7 6 -38 14 -70 9 -33 16 -110 17 -183 l2 -125 6 130
5 130 23 -58 c15 -40 25 -96 32 -175 l9 -117 -4 125 c-4 120 -6 128 -40 196
-20 39 -42 91 -50 115 -7 24 -14 39 -14 32z"/>
<path d="M3430 2660 c12 -16 24 -30 26 -30 3 0 -4 14 -16 30 -12 17 -24 30
-26 30 -3 0 4 -13 16 -30z"/>
<path d="M3180 2665 c0 -8 5 -15 10 -15 6 0 10 7 10 15 0 8 -4 15 -10 15 -5 0
-10 -7 -10 -15z"/>
<path d="M3190 2560 c-8 -5 -12 -11 -9 -14 2 -3 11 -1 19 4 8 5 12 11 9 14 -2
3 -11 1 -19 -4z"/>
<path d="M3160 2494 c0 -8 5 -12 10 -9 6 3 10 10 10 16 0 5 -4 9 -10 9 -5 0
-10 -7 -10 -16z"/>
<path d="M3210 2465 c0 -8 5 -15 10 -15 6 0 10 7 10 15 0 8 -4 15 -10 15 -5 0
-10 -7 -10 -15z"/>
<path d="M3133 2435 c-3 -9 -3 -18 0 -21 9 -9 27 6 27 22 0 19 -19 18 -27 -1z"/>
<path d="M3070 2405 c0 -8 9 -15 20 -15 11 0 20 7 20 15 0 8 -9 15 -20 15 -11
0 -20 -7 -20 -15z"/>
<path d="M3090 2195 c-7 -8 -8 -15 -2 -15 5 0 15 7 22 15 7 8 8 15 2 15 -5 0
-15 -7 -22 -15z"/>
<path d="M2975 2150 c-3 -5 -2 -10 4 -10 5 0 13 5 16 10 3 6 2 10 -4 10 -5 0
-13 -4 -16 -10z"/>
<path d="M3110 2140 c0 -5 4 -10 9 -10 6 0 13 5 16 10 3 6 -1 10 -9 10 -9 0
-16 -4 -16 -10z"/>
<path d="M3642 2798 c-14 -18 -53 -98 -48 -98 2 0 18 25 34 55 30 54 34 67 14
43z"/>
<path d="M3747 2770 c-4 -19 -25 -70 -47 -115 -39 -78 -40 -83 -44 -205 l-5
-125 9 117 c7 79 17 135 32 175 l23 58 5 -130 6 -130 2 124 c1 72 8 148 18
183 8 33 13 65 11 71 -2 7 -7 -4 -10 -23z"/>
<path d="M3569 2673 c-13 -16 -12 -17 4 -4 16 13 21 21 13 21 -2 0 -10 -8 -17
-17z"/>
<path d="M3800 2665 c0 -8 5 -15 10 -15 6 0 10 7 10 15 0 8 -4 15 -10 15 -5 0
-10 -7 -10 -15z"/>
<path d="M3790 2562 c0 -5 7 -13 16 -16 10 -4 14 -1 12 6 -5 15 -28 23 -28 10z"/>
<path d="M3820 2501 c0 -6 5 -13 10 -16 6 -3 10 1 10 9 0 9 -4 16 -10 16 -5 0
-10 -4 -10 -9z"/>
<path d="M3770 2465 c0 -8 5 -15 10 -15 6 0 10 7 10 15 0 8 -4 15 -10 15 -5 0
-10 -7 -10 -15z"/>
<path d="M3842 2436 c1 -10 8 -17 13 -17 15 1 12 24 -3 29 -9 3 -13 -2 -10
-12z"/>
<path d="M3890 2404 c0 -9 7 -14 17 -12 25 5 28 28 4 28 -12 0 -21 -6 -21 -16z"/>
<path d="M3733 2355 c0 -22 2 -30 4 -17 2 12 2 30 0 40 -3 9 -5 -1 -4 -23z"/>
<path d="M3894 2195 c8 -8 18 -15 22 -15 3 0 1 7 -6 15 -7 8 -17 15 -22 15 -5
0 -3 -7 6 -15z"/>
<path d="M4005 2150 c3 -5 11 -10 16 -10 6 0 7 5 4 10 -3 6 -11 10 -16 10 -6
0 -7 -4 -4 -10z"/>
<path d="M3860 2146 c0 -2 7 -6 15 -10 8 -3 15 -1 15 4 0 6 -7 10 -15 10 -8 0
-15 -2 -15 -4z"/>
<path d="M5200 2800 c0 -5 5 -10 11 -10 5 0 7 5 4 10 -3 6 -8 10 -11 10 -2 0
-4 -4 -4 -10z"/>
<path d="M1785 2800 c-3 -5 -1 -10 4 -10 6 0 11 5 11 10 0 6 -2 10 -4 10 -3 0
-8 -4 -11 -10z"/>
<path d="M1980 2560 c0 -5 5 -10 10 -10 6 0 10 5 10 10 0 6 -4 10 -10 10 -5 0
-10 -4 -10 -10z"/>
<path d="M5000 2560 c0 -5 5 -10 10 -10 6 0 10 5 10 10 0 6 -4 10 -10 10 -5 0
-10 -4 -10 -10z"/>
<path d="M4122 2551 c-18 -11 -12 -51 9 -64 11 -7 25 -5 45 4 32 16 44 47 22
60 -17 11 -59 11 -76 0z"/>
<path d="M2802 2551 c-39 -24 27 -83 68 -61 22 12 26 40 8 58 -14 14 -57 16
-76 3z"/>
<path d="M2606 2383 c-4 -5 -12 -9 -17 -9 -5 -1 -13 -2 -18 -3 -17 -2 1 -51
19 -51 14 0 40 43 40 66 0 7 -17 4 -24 -3z"/>
<path d="M2645 2321 c-3 -5 -1 -12 5 -16 5 -3 10 1 10 9 0 18 -6 21 -15 7z"/>
<path d="M2680 2302 c0 -10 21 -32 32 -32 16 0 8 19 -12 30 -11 6 -20 7 -20 2z"/>
<path d="M4370 2386 c0 -23 26 -66 40 -66 18 0 36 49 19 51 -5 1 -13 2 -18 3
-5 0 -13 4 -17 9 -7 7 -24 10 -24 3z"/>
<path d="M4340 2314 c0 -8 5 -12 10 -9 6 4 8 11 5 16 -9 14 -15 11 -15 -7z"/>
<path d="M4298 2299 c-19 -11 -24 -29 -8 -29 5 0 14 9 20 20 12 23 12 23 -12
9z"/>
<path d="M4356 2275 c-3 -10 -2 -23 4 -29 15 -15 24 1 13 26 -9 20 -10 20 -17
3z"/>
<path d="M2405 2135 c17 -13 34 -24 39 -25 6 0 -5 11 -24 25 -44 32 -54 32
-15 0z"/>
<path d="M2473 2104 c9 -3 17 -12 17 -19 0 -8 4 -17 10 -20 6 -4 7 2 1 17 -4
13 -17 24 -27 25 -16 2 -16 1 -1 -3z"/>
<path d="M2658 2013 c7 -3 16 -2 19 1 4 3 -2 6 -13 5 -11 0 -14 -3 -6 -6z"/>
<path d="M3011 2000 c-31 -26 -17 -26 16 0 14 11 22 20 17 20 -5 -1 -20 -10
-33 -20z"/>
<path d="M3098 2013 c12 -2 32 -2 45 0 12 2 2 4 -23 4 -25 0 -35 -2 -22 -4z"/>
<path d="M2698 2003 c7 -3 16 -2 19 1 4 3 -2 6 -13 5 -11 0 -14 -3 -6 -6z"/>
<path d="M3223 1975 c0 -22 2 -30 4 -17 2 12 2 30 0 40 -3 9 -5 -1 -4 -23z"/>
<path d="M3323 1950 c0 -25 2 -35 4 -22 2 12 2 32 0 45 -2 12 -4 2 -4 -23z"/>
<path d="M2606 1954 c-4 -14 -5 -28 -3 -31 3 -2 8 8 11 23 4 14 5 28 3 31 -3
2 -8 -8 -11 -23z"/>
<path d="M2928 1973 c12 -2 30 -2 40 0 9 3 -1 5 -23 4 -22 0 -30 -2 -17 -4z"/>
<path d="M2872 1910 c0 -14 2 -19 5 -12 2 6 2 18 0 25 -3 6 -5 1 -5 -13z"/>
<path d="M3213 1865 c0 -22 2 -30 4 -17 2 12 2 30 0 40 -3 9 -5 -1 -4 -23z"/>
<path d="M2590 1790 c0 -5 5 -10 10 -10 6 0 10 5 10 10 0 6 -4 10 -10 10 -5 0
-10 -4 -10 -10z"/>
<path d="M3202 1775 c0 -16 2 -22 5 -12 2 9 2 23 0 30 -3 6 -5 -1 -5 -18z"/>
<path d="M2610 1664 c0 -8 5 -12 10 -9 6 3 10 10 10 16 0 5 -4 9 -10 9 -5 0
-10 -7 -10 -16z"/>
<path d="M4105 2230 c-3 -5 -2 -10 4 -10 6 0 8 -8 5 -17 -4 -11 -3 -14 3 -7 4
6 15 13 23 16 12 4 10 7 -7 16 -14 8 -24 9 -28 2z"/>
<path d="M2825 2300 c-3 -5 -1 -10 4 -10 6 0 11 5 11 10 0 6 -2 10 -4 10 -3 0
-8 -4 -11 -10z"/>
<path d="M2860 2220 c-13 -8 -13 -10 2 -10 9 0 18 -3 21 -7 2 -5 2 -3 1 4 -2
6 2 14 9 17 8 3 6 5 -3 5 -8 0 -22 -4 -30 -9z"/>
<path d="M4500 2093 c0 -11 3 -14 8 -7 4 6 14 14 22 17 10 4 8 6 -7 6 -16 1
-23 -5 -23 -16z"/>
<path d="M3848 2013 c6 -2 18 -2 25 0 6 3 1 5 -13 5 -14 0 -19 -2 -12 -5z"/>
<path d="M3898 2013 c7 -3 16 -2 19 1 4 3 -2 6 -13 5 -11 0 -14 -3 -6 -6z"/>
<path d="M4328 2013 c7 -3 16 -2 19 1 4 3 -2 6 -13 5 -11 0 -14 -3 -6 -6z"/>
<path d="M3772 1980 c0 -19 2 -27 5 -17 2 9 2 25 0 35 -3 9 -5 1 -5 -18z"/>
<path d="M3993 1988 c13 -12 34 -18 61 -17 l41 2 -46 6 c-26 4 -53 11 -61 16
-8 6 -5 2 5 -7z"/>
<path d="M3673 1960 c0 -25 2 -35 4 -22 2 12 2 32 0 45 -2 12 -4 2 -4 -23z"/>
<path d="M4371 1995 c1 -19 18 -51 18 -35 0 8 -4 22 -9 30 -5 8 -9 11 -9 5z"/>
<path d="M3782 1880 c0 -19 2 -27 5 -17 2 9 2 25 0 35 -3 9 -5 1 -5 -18z"/>
<path d="M3681 1864 c0 -11 3 -14 6 -6 3 7 2 16 -1 19 -3 4 -6 -2 -5 -13z"/>
<path d="M3792 1785 c0 -16 2 -22 5 -12 2 9 2 23 0 30 -3 6 -5 -1 -5 -18z"/>
<path d="M4390 1790 c0 -5 5 -10 10 -10 6 0 10 5 10 10 0 6 -4 10 -10 10 -5 0
-10 -4 -10 -10z"/>
<path d="M4371 1648 c0 -28 2 -30 9 -13 12 28 12 45 0 45 -5 0 -10 -15 -9 -32z"/>
<path d="M4065 4425 c-14 -53 -13 -83 3 -81 16 3 37 34 28 43 -3 4 -6 0 -6 -8
0 -11 -2 -11 -10 1 -5 8 -10 22 -10 30 0 13 1 13 10 0 11 -18 12 -3 1 25 -7
17 -9 16 -16 -10z m15 -70 c0 -5 -5 -3 -10 5 -5 8 -10 20 -10 25 0 6 5 3 10
-5 5 -8 10 -19 10 -25z"/>
<path d="M2926 4404 c-6 -22 -9 -25 -17 -13 -5 7 -9 10 -9 6 0 -12 39 -87 46
-87 3 0 2 4 -1 10 -3 5 -1 18 4 29 8 14 7 28 -3 51 l-13 32 -7 -28z m18 -49
c-6 -15 -8 -15 -16 -2 -4 8 -5 23 -2 32 6 15 8 15 16 2 4 -8 5 -23 2 -32z"/>
<path d="M3021 4379 c-7 -22 -11 -43 -8 -45 2 -2 9 14 16 37 7 22 11 43 8 45
-2 2 -9 -14 -16 -37z"/>
<path d="M3061 4304 c0 -11 3 -14 6 -6 3 7 2 16 -1 19 -3 4 -6 -2 -5 -13z"/>
<path d="M3072 4255 c0 -16 2 -22 5 -12 2 9 2 23 0 30 -3 6 -5 -1 -5 -18z"/>
<path d="M3921 4264 c0 -11 3 -14 6 -6 3 7 2 16 -1 19 -3 4 -6 -2 -5 -13z"/>
<path d="M2890 4190 c0 -4 11 -17 25 -30 34 -32 32 -49 -2 -20 -16 14 0 -4 33
-39 44 -45 65 -61 75 -55 11 7 -4 26 -58 79 -40 39 -73 68 -73 65z m130 -136
c0 -10 -36 16 -60 42 -23 26 -22 25 18 -5 23 -18 42 -35 42 -37z"/>
<path d="M3910 3840 c-30 -16 -51 -29 -47 -30 10 0 107 49 107 55 0 7 1 7 -60
-25z"/>
<path d="M3155 3804 c28 -13 57 -24 65 -24 8 0 -12 12 -45 25 -75 31 -85 31
-20 -1z"/>
<path d="M3820 3800 c-8 -5 -10 -10 -5 -10 6 0 17 5 25 10 8 5 11 10 5 10 -5
0 -17 -5 -25 -10z"/>
<path d="M3416 3729 c-8 -42 0 -50 9 -9 4 17 5 34 2 36 -2 3 -7 -10 -11 -27z"/>
<path d="M3766 3741 c-19 -7 -18 -8 4 -14 13 -3 26 -4 29 -2 2 3 -2 5 -10 6
-8 0 -6 4 6 9 25 11 -2 12 -29 1z"/>
<path d="M3263 3683 c9 -2 23 -2 30 0 6 3 -1 5 -18 5 -16 0 -22 -2 -12 -5z"/>
<path d="M3723 3683 c9 -2 23 -2 30 0 6 3 -1 5 -18 5 -16 0 -22 -2 -12 -5z"/>
</g>
</svg>
