        <svg className="h-96" viewBox="0 0 128 160">
          <path
            fill="#F5F5F5"
            d="M56.129,62.706A5.08,5.08,0,0,0,59,59.833c.93-2.62.058-6.957-2.274-11.319C53.834,43.1,49.563,39.228,45.305,38.15a8.973,8.973,0,0,0-8.318,1.64c-3.139,2.653-4.3,7.262-4.044,10.417.389,5,4.258,8.944,11.828,12.048a17.891,17.891,0,0,0,6.667,1.325A11.672,11.672,0,0,0,56.129,62.706Z"
          />
          <path fill="#F5F5F5" d="M58.96,75.5a1,1,0,0,0,1,1h8.08a1,1,0,1,0,0-2H59.96A1,1,0,0,0,58.96,75.5Z" />
          <path
            fill="#F5F5F5"
            d="M71.871,62.706a11.672,11.672,0,0,0,4.691.874,17.9,17.9,0,0,0,6.667-1.325c7.57-3.1,11.438-7.047,11.828-12.055.253-3.155-.9-7.759-4.04-10.41A8.979,8.979,0,0,0,82.7,38.15c-4.258,1.078-8.529,4.952-11.423,10.364-2.332,4.362-3.2,8.7-2.274,11.319A5.08,5.08,0,0,0,71.871,62.706Z"
          />
          <path
            fill="#F5F5F5"
            d="M61.6,68.71a1,1,0,0,0,.881-.527,3.768,3.768,0,0,1,3.007,0,1,1,0,0,0,1.882-.473c0-1.761-3.355-1.84-3.39-1.84s-3.38.079-3.38,1.84A1,1,0,0,0,61.6,68.71Z"
          />
          <path
            fill="#F5F5F5"
            d="M100.837,110.579a62.1,62.1,0,0,0-9.843-11.126,5.9,5.9,0,0,0,1.484-2.62c.52-2.388-1.131-5.793-2.7-7.983-.858-1.2-3.123-4.008-5.6-4.285a6.737,6.737,0,0,0-1.626.049c6.015-6,10.475-13.94,13.365-20.2C101.76,51.751,104.064,31.7,95.3,17.6,89.165,7.752,78.353,2.356,63.976,2c-14.329.356-25.141,5.752-31.271,15.6C23.936,31.7,26.24,51.751,32.093,64.42c2.89,6.25,7.355,14.2,13.364,20.2a6.75,6.75,0,0,0-1.627-.051c-2.48.277-4.745,3.088-5.6,4.285-1.574,2.19-3.225,5.595-2.7,7.981a5.9,5.9,0,0,0,1.484,2.622,62.1,62.1,0,0,0-9.843,11.126,5.749,5.749,0,0,0-1.023,4.579c.554,2.141,2.666,3.551,4.657,4.647C34.678,121.948,46.611,126,64,126s29.322-4.052,33.2-6.194c1.992-1.1,4.1-2.507,4.658-4.648A5.749,5.749,0,0,0,100.837,110.579Zm-39.951-6.455a89.92,89.92,0,0,0-4.9,17.158,1,1,0,0,1-.986.843.944.944,0,0,1-.158-.013,1,1,0,0,1-.83-1.144,90.158,90.158,0,0,1,5.017-17.592,1,1,0,1,1,1.856.748ZM57.66,92.4a21.1,21.1,0,0,0,12.691,0A32.181,32.181,0,0,0,64,101.628,31.9,31.9,0,0,0,57.66,92.4Zm15.5,29.71a.944.944,0,0,1-.158.013,1,1,0,0,1-.986-.843,90.122,90.122,0,0,0-4.9-17.158,1,1,0,1,1,1.856-.748,90.158,90.158,0,0,1,5.017,17.592A1,1,0,0,1,73.157,122.112Zm2.836-34.633c-7.758,5.2-16.324,5.185-24.133-.1-8.358-5.664-14.376-16.07-17.952-23.8-5.635-12.2-7.883-31.456.495-44.921C40.242,9.276,50.208,4.344,63.976,4,77.792,4.344,87.758,9.276,93.6,18.66c8.378,13.465,6.13,32.725.5,44.921C90.5,71.36,84.44,81.821,75.993,87.479Z"
          />
        </svg>