<svg xmlns="http://www.w3.org/2000/svg" xmlns:xlink="http://www.w3.org/1999/xlink" xmlns:xodm="http://www.corel.com/coreldraw/odm/2003" xml:space="preserve" version="1.1" style="shape-rendering:geometricPrecision;text-rendering:geometricPrecision;image-rendering:optimizeQuality;" viewBox="0 0 60000 75000" x="0px" y="0px" fill-rule="evenodd" clip-rule="evenodd"><defs><style type="text/css">
   
    .fil0 {fill:black;fill-rule:nonzero}
   
  </style></defs><g><path class="fil0" d="M10589.91 44597.12c2403.78,-1709.64 2565.41,-2360.92 3062.79,-4369.89 46.15,-186.39 95.39,-385.3 183.58,-728.31 1147.94,-4464.9 4656.33,-5286.27 8326.6,-6145.54 128.77,-30.14 257.77,-60.36 386.85,-90.76 1598.94,-376.65 2867.44,-1866.2 4045.71,-3249.8 180.77,-212.26 332.02,-390.22 346.79,-407.38 2112.64,-2454.95 4965.37,-2777.5 7901.67,-2175.04 2858.07,586.4 5775.81,2050.37 8139.88,3243.59 1618.45,816.82 7651.93,1414.16 11602.86,1805.3 587.3,58.14 1130.4,111.92 1557.51,156.02 1119.01,115.56 1926.31,436.19 2473.36,867.93 367.45,290 618.65,628.72 768.92,990.52 151.84,365.56 200.09,751.89 160.67,1133.62 -53.88,521.69 -273.55,1033.92 -616.49,1468.45 -1725.59,2186.51 -4408.05,2800.6 -7286.75,2672.91 -2190.65,-97.16 -4492.76,-625.31 -6558,-1207.43 -3055.86,-280.46 -3606.91,2284.71 -4412.54,6037.82 -59.53,277.35 -120.6,561.85 -232.24,1067 -489.26,2213.59 -1414.44,4016.19 -2398.98,5934.46l-169.81 331.1c-636.66,1243.23 -1034.62,2500.61 -1452.32,3820.37l-63.25 199.76c-235.22,742.15 -807.35,1445.29 -1520.03,1874.94 -659.41,397.55 -1444.82,568.15 -2211.11,335.85 -332.41,-100.78 -935.02,-269.55 -1640.06,-467 -1441.3,-403.65 -3317.82,-929.22 -4606.1,-1372.05 -0.74,2.51 -1.48,5.01 -2.27,7.51 -19.27,60.79 -42.93,122.18 -70.79,184 -278.02,616.65 -901.89,1020.21 -1725.43,1174.08 -756.89,141.43 -1694.58,72.69 -2678.61,-239.21 -276.81,-87.73 -560.13,-195.87 -847.02,-325.22 -28.42,-12.81 -54.61,-28.53 -78.38,-46.66l-4416.85 -2974.47c-2518.63,1622.69 -9829.2,-4296.13 -13089.2,-6935.61 -671.42,-543.63 -1165.2,-943.43 -1383.75,-1090.6 -608.27,-409.63 -1125.22,-930.78 -1411.71,-1504.33 -166.26,-332.84 -256.67,-685.69 -246.61,-1049.14 10.15,-366.8 122.74,-734.45 362.83,-1090.96 305.6,-453.8 818.19,-888.25 1592.45,-1275.01 49.32,-24.64 99.14,-47.11 149.18,-68.6 -7.02,-29.09 -10.86,-59.44 -11.1,-90.65 -1.78,-206.29 -15.3,-506.08 -30.67,-847.1 -41.79,-927.12 -96.79,-2148.67 34.76,-3059.49 -0.72,-45.79 6.4,-91.73 21.42,-135.64 59.31,-344.99 148.94,-637.33 281.14,-840.11 315.93,-484.5 714.28,-782.69 1140.76,-920.49 289.11,-93.41 587.45,-111.72 879.37,-63.17 286.42,47.63 565.4,158.99 821.7,326.11 485.3,316.46 893.86,836.16 1115.27,1500.96 363.85,823.56 590.49,1679.04 817.09,2534.5 429.85,1622.71 859.81,3245.4 2266.88,4520.45 244.89,195.7 485.33,390.93 720.03,582.41zm7942.43 -33396.17c37.21,-132.67 174.94,-210.06 307.61,-172.85 132.67,37.21 210.06,174.94 172.85,307.61 -147.94,527.64 -407.78,1007.03 -756.02,1393.18 -341.03,378.17 -766.79,667.52 -1255.74,826.75 -131.05,42.6 -271.85,-29.1 -314.45,-160.15 -42.6,-131.05 29.1,-271.85 160.15,-314.45 402.71,-131.14 755.07,-371.34 1038.94,-686.13 297.25,-329.61 519.51,-740.45 646.66,-1193.96zm-1019.55 -8163.02c306.12,941.82 845.85,1912.37 1389.81,2890.55 1111.2,1998.21 2239.24,4026.71 1648.71,6132.99 -271.36,967.87 -809.88,1822.32 -1543.28,2425.48 -699.4,575.19 -1571.56,921.23 -2555.2,921.23 -983.65,0 -1855.8,-346.03 -2555.2,-921.22 -733.4,-603.16 -1271.92,-1457.61 -1543.28,-2425.49 -591.1,-2108.28 561.21,-4187.96 1689.03,-6223.42 511.28,-922.77 1017.29,-1836 1331.35,-2709.66 20.76,-57.77 38.94,-156.47 58.12,-260.68 96.03,-521.68 207.86,-1129.08 1007.11,-1123.67 798.24,5.39 918.03,581.69 1021.02,1077.28 16.86,81.1 33,158.74 51.81,216.61zm692.93 3278.05c-564.24,-1014.66 -1124.1,-2021.41 -1452.31,-3031.17 -30.85,-94.94 -51.8,-195.7 -73.69,-300.99 -42.46,-204.3 -91.85,-441.88 -242.88,-442.9 -132.81,-0.9 -179.51,252.73 -219.61,470.55 -24.87,135.12 -48.43,263.09 -92.5,385.68 -337.47,938.78 -858.26,1878.68 -1384.47,2828.4 -1048.67,1892.62 -2120.12,3826.36 -1617.15,5620.3 228.15,813.77 675.12,1527.39 1280.78,2025.49 559.42,460.07 1258.63,736.84 2048.94,736.84 790.31,0 1489.52,-276.78 2048.94,-736.85 605.66,-498.1 1052.63,-1211.72 1280.78,-2025.48 502.2,-1791.25 -545.13,-3674.63 -1576.83,-5529.87zm8750.17 13824.36c37.21,-132.67 174.94,-210.06 307.61,-172.85 132.67,37.21 210.06,174.94 172.85,307.61 -147.94,527.64 -407.78,1007.03 -756.02,1393.18 -341.03,378.17 -766.79,667.52 -1255.74,826.75 -131.05,42.6 -271.85,-29.1 -314.45,-160.15 -42.6,-131.05 29.1,-271.85 160.15,-314.45 402.71,-131.14 755.07,-371.34 1038.94,-686.13 297.25,-329.61 519.51,-740.45 646.66,-1193.96zm-1019.55 -8163.02c306.12,941.82 845.85,1912.37 1389.81,2890.55 1111.2,1998.21 2239.24,4026.71 1648.71,6132.99 -271.36,967.87 -809.88,1822.32 -1543.28,2425.48 -699.4,575.19 -1571.56,921.23 -2555.2,921.23 -983.65,0 -1855.8,-346.03 -2555.2,-921.22 -733.4,-603.16 -1271.92,-1457.61 -1543.28,-2425.49 -591.1,-2108.28 561.21,-4187.96 1689.03,-6223.42 511.28,-922.77 1017.29,-1836 1331.35,-2709.66 20.76,-57.77 38.94,-156.47 58.12,-260.68 96.03,-521.68 207.86,-1129.08 1007.11,-1123.67 798.24,5.39 918.03,581.69 1021.02,1077.28 16.86,81.1 33,158.74 51.81,216.61zm692.93 3278.05c-564.24,-1014.66 -1124.1,-2021.41 -1452.31,-3031.17 -30.85,-94.94 -51.8,-195.7 -73.69,-300.99 -42.46,-204.3 -91.85,-441.88 -242.88,-442.9 -132.81,-0.9 -179.51,252.73 -219.61,470.55 -24.87,135.12 -48.43,263.09 -92.5,385.68 -337.47,938.78 -858.26,1878.68 -1384.47,2828.4 -1048.67,1892.62 -2120.12,3826.36 -1617.15,5620.3 228.15,813.77 675.12,1527.39 1280.78,2025.49 559.42,460.07 1258.63,736.84 2048.94,736.84 790.31,0 1489.52,-276.78 2048.94,-736.85 605.66,-498.1 1052.63,-1211.72 1280.78,-2025.48 502.2,-1791.25 -545.13,-3674.63 -1576.83,-5529.87zm-23271.39 21659.2c65.79,39.62 138.68,73.13 219.59,99.57 168.95,55.23 373,81.25 619.7,70.85 51.32,-2.16 99.25,-1.9 143.67,0.76 287.31,17.18 525.75,122.44 701.43,306.56 171.12,179.32 269.89,422.83 282.47,721.06 2.27,54.14 1.88,107.8 -1.28,160.76 -0.65,11.07 -1.77,22 -3.29,32.79l0.16 0.02 -383.04 2688.1c-1.79,12.58 -4.18,24.93 -7.07,37.04 915.45,259.37 1869.55,775.55 2807.71,1400.13 -415.66,-880.77 -661.24,-1807.8 -906.81,-2734.83 -218.67,-825.52 -437.36,-1651.06 -781.28,-2426.66l0.63 -0.28c-5.5,-12.53 -10.42,-25.46 -14.69,-38.78 -160.48,-496.68 -453.9,-878.73 -799.52,-1104.1 -164.57,-107.31 -339.61,-178.13 -515.44,-207.37 -170.32,-28.32 -342.59,-18.23 -507.49,35.05 -258.35,83.47 -507.27,275.76 -715.76,595.49 -57.79,88.65 -103.62,212.88 -139.69,363.84zm789.83 3960.67l379.76 -2665.11c1.08,-24.32 1.2,-46.16 0.39,-65.5 -4.01,-95.1 -26.26,-163.07 -63.71,-202.32 -32.85,-34.43 -90.63,-54.93 -170.19,-59.68 -22.94,-1.37 -44.82,-1.63 -65.53,-0.76 -346.75,14.63 -643.12,-25.08 -897.84,-108.35 -25.76,-8.42 -51.09,-17.27 -75.99,-26.55 -39.68,740.34 1.36,1651.28 33.77,2370.24 12.87,285.43 24.43,541.69 28.94,759.77 270.1,-34.21 547.5,-33.12 830.4,-1.74zm24869.53 2054.29c-117.03,72.81 -270.94,36.96 -343.75,-80.07 -72.81,-117.03 -36.96,-270.94 80.07,-343.75 1592.21,-991.42 2972.26,-1381.51 4407.26,-1426.23 1421.35,-44.3 2875.93,251.44 4643.46,635.12 134.83,29.12 220.53,162.04 191.41,296.87 -29.12,134.83 -162.04,220.53 -296.87,191.41 -1736.99,-377.05 -3164.35,-667.75 -4524.32,-625.36 -1346.32,41.95 -2647.11,411.69 -4157.26,1352.01zm-9861.38 -1044.6c-137.52,3.77 -252.09,-104.66 -255.86,-242.18 -3.77,-137.52 104.66,-252.09 242.18,-255.86 458.39,-14.19 873.03,30.57 1287.26,113.54 407.19,81.55 815.01,200.21 1265.29,335.9 561.21,169.11 1058.32,226.89 1507.5,209.52 447.16,-17.31 850.63,-109.34 1224.59,-240.11 129.98,-45.3 272.08,23.34 317.38,153.32 45.3,129.98 -23.34,272.08 -153.32,317.38 -416.01,145.48 -867.13,247.95 -1371.07,267.45 -501.93,19.42 -1052.57,-43.69 -1667.66,-229.04 -435.42,-131.22 -829.48,-245.9 -1220.37,-324.18 -383.85,-76.88 -763.6,-118.5 -1175.92,-105.74zm-4730.35 1737.38c-135.91,-23.19 -227.29,-152.17 -204.1,-288.08 23.19,-135.91 152.17,-227.29 288.08,-204.1 549.27,95.03 1076.17,139.66 1618.87,114.75 542.55,-24.91 1105.41,-119.37 1727.82,-302.46 936.44,-275.45 1660.73,-347.28 2333.3,-295.75 669.85,51.32 1275.31,223.11 1985.59,437.14 1814.2,546.68 2998.12,-84.94 4057.77,-650.29 262.11,-139.83 517.13,-275.9 764.91,-388.43 125.66,-56.63 273.45,-0.66 330.08,125 56.63,125.66 0.66,273.45 -125,330.08 -247.62,112.46 -488.27,240.86 -735.61,372.81 -1146.01,611.42 -2426.42,1294.53 -4434.73,689.35 -681.76,-205.44 -1261.23,-370.21 -1880.11,-417.62 -616.17,-47.2 -1284.53,20.01 -2155.58,276.23 -661.6,194.62 -1263.47,295.19 -1846.96,321.98 -583.36,26.78 -1143.97,-20.2 -1724.33,-120.61zm7926.49 3446.81c220.05,18.12 383.75,211.2 365.63,431.25 -18.12,220.05 -211.2,383.75 -431.25,365.63 -1223.26,-102.34 -1832.61,-451.74 -2324.84,-733.98 -111.66,-64.01 -216.88,-124.35 -301.73,-166.45 -157.31,-78.06 -364.92,-156.43 -555.95,-179.85 -98.89,-12.12 -183.14,-10.08 -227.31,17.54 -201.15,125.83 -405.28,274.88 -607.76,441.15 -98.23,80.65 -196.91,165.94 -295.5,255.17 1137.46,707.65 2251.82,1594.07 3250.47,2388.73 232.03,184.64 457.56,364.09 674.65,534.38 58.93,-305.81 179.28,-640.54 347.86,-986.98 332.93,-684.2 862.44,-1445.87 1465.21,-2113.29 592.44,-656 1259.5,-1223.94 1887.13,-1544.3 220.16,-112.37 479.56,-134.51 737.75,-102.85 280.3,34.36 569.61,135.09 790.82,244.85 126.76,62.9 232.88,123.74 345.51,188.32 423.42,242.79 947.61,543.34 1993.56,630.84 220.05,18.12 383.75,211.2 365.63,431.25 -18.12,220.05 -211.2,383.75 -431.25,365.63 -1223.23,-102.33 -1832.59,-451.72 -2324.82,-733.96 -111.67,-64.03 -216.84,-124.33 -301.75,-166.46 -151.32,-75.08 -347.38,-143.76 -534.58,-166.71 -113.66,-13.93 -214.92,-10.79 -278.37,21.59 -541.91,276.61 -1129.46,779.82 -1659.01,1366.18 -549.75,608.72 -1032.96,1303.93 -1337.07,1928.91 -265.81,546.27 -389.82,1001.71 -277.38,1222 6.03,11.81 12.27,21.83 18.72,29.89 135.26,98.33 265.05,189.47 388.67,271.99 182.94,122.54 231.91,370.19 109.37,553.13 -122.54,182.94 -370.19,231.91 -553.13,109.37 -566.01,-377.87 -1215.2,-894.45 -1924.4,-1458.78 -2368.77,-1884.9 -5436.16,-4325.68 -7497.14,-3296.2 -644.33,321.85 -1056.4,661.87 -1286.23,1003.15 -151.52,225 -222.38,449.98 -228.44,669.08 -6.15,222.46 54.42,448.92 165.35,671 8.76,17.54 17.86,35.03 27.22,52.48 1169.15,138.94 1368.87,9.47 1857.65,-307.7 244.17,-158.44 547.43,-355.24 1010.52,-584.82 316.88,-157.09 686.99,-142.15 1037.43,-30.94 379.73,120.51 751.56,362.37 987.5,607.57 105.75,109.91 223.51,222.53 342.37,336.2 624.02,596.81 1274.68,1219.11 1175.94,2216.82 -30.06,303.85 -128.51,551.72 -279.81,750.87 -198.61,261.39 -476.26,424.28 -801.93,509.55 -191.48,50.13 -399.64,72.67 -616.94,72.49l4790.26 3225.94c244.28,108.91 489.29,201.62 732.31,278.64 858.6,272.14 1659.51,335.35 2291.11,217.33 564.98,-105.56 979.66,-352.89 1144.19,-717.82 13,-28.86 25.17,-61.03 36.41,-96.5 4.65,-14.73 10.1,-28.98 16.24,-42.76 -217.18,-87.72 -394.91,-169.26 -521.79,-242.33 -320.02,-184.3 -573.14,-438.95 -758.69,-737.09 -255.57,-410.69 -383.72,-905.64 -381.52,-1410.99 2.17,-497.98 131.7,-1008.8 391.39,-1459.72 220.18,-382.31 531.94,-721.18 936.71,-973.07 1583.05,-985.18 3148.94,-1114.77 4646.65,-779.31 257.01,57.57 511.48,128.89 763.22,211.83l0.22 -14.66c10.48,-556.35 231.35,-1276.01 603.58,-1981.67 366.01,-693.85 883.32,-1388.45 1494.37,-1912.52 653.03,-560.08 1416.69,-929.41 2230.46,-914.08 220.05,3.45 395.64,184.64 392.19,404.69 -3.45,220.05 -184.64,395.64 -404.69,392.19 -597.87,-11.26 -1183.21,280.92 -1699.2,723.46 -530.67,455.13 -983.54,1065.2 -1306.87,1678.14 -317.11,601.16 -504.83,1190.57 -512.96,1622.29 -2.59,137.78 11.85,249.17 45.41,325.05 873.32,380.03 1709.03,879.05 2497.89,1405.69 182.94,122.54 231.91,370.19 109.37,553.13 -122.54,182.94 -370.19,231.91 -553.13,109.37 -780.01,-520.73 -1604.22,-1011.98 -2456.37,-1373.74 -13.04,-4.7 -25.87,-10.11 -38.43,-16.19 -439.05,-184.19 -885.43,-333.73 -1336.94,-434.86 -1306.63,-292.66 -2672.49,-179.75 -4052.89,679.31 -289.92,180.42 -512.13,421.22 -667.97,691.83 -189.18,328.48 -283.55,701.56 -285.13,1065.96 -1.55,357.04 86.7,703.07 262.76,985.99 29.17,46.87 60.72,91.96 94.64,134.99 955.75,-37.71 1137.37,-221.65 1472.7,-561.37 271.43,-274.97 621.3,-629.43 1334.08,-1067.1 215.39,-132.29 476.88,-195.37 745.66,-207.24 283.04,-12.51 579.81,32.23 834.1,111.14 471.26,146.3 1105.94,401.23 1625.96,757.3 411.67,281.87 758.21,630.37 923.63,1048.46 111.46,281.72 151.86,537.2 134.61,768.17 -35.13,470.47 -294.03,808.3 -678.01,1043.04 -139.01,84.99 -294.88,155.05 -461.66,211.93l146.9 41.14c669.63,187.53 1241.96,347.83 1655.7,473.26 528.07,160.09 1087.04,31.84 1567.35,-257.73 551.52,-332.49 991.93,-869.25 1170.03,-1431.18l63.25 -199.76c425.41,-1344.1 830.7,-2624.67 1505.44,-3942.25l169.81 -331.1c960.44,-1871.32 1862.99,-3629.82 2330.24,-5743.84 48.97,-221.59 140.32,-647.15 229.1,-1060.74 699.22,-3257.37 1225.67,-5708.61 3216.92,-6457.29 -1968.94,-577.43 -2294.73,-367.02 -4158.86,837.13l-197.21 127.33c-185.53,119.08 -432.49,65.22 -551.57,-120.31 -119.08,-185.53 -65.22,-432.49 120.31,-551.57l197.21 -127.33c2226.46,-1438.2 2526.08,-1631.75 5120.89,-837.87 514.95,157.55 1054.71,318.95 1611.78,476.46 9.33,2.28 18.53,4.91 27.57,7.82 2024.55,571.41 4276.08,1089.82 6399.14,1183.98 2645.09,117.32 5093.21,-425.84 6627.37,-2369.79 249.86,-316.59 409.42,-685.06 447.73,-1055.95 26.11,-252.88 -5.21,-507.27 -104.41,-746.1 -100.77,-242.63 -272.19,-472.11 -525.18,-671.78 -434.37,-342.81 -1103.7,-600.32 -2060.86,-699.17 -499.75,-51.6 -1006.53,-101.79 -1554.37,-156.02 -4010.12,-397 -10133.99,-1003.29 -11884.12,-1886.56 -2322.41,-1172.19 -5188.17,-2610.25 -7939.88,-3174.83 -2673.46,-548.53 -5256.89,-271.07 -7136.03,1912.54 -244.62,284.26 -294.85,343.26 -346.79,404.24 -1261.58,1481.42 -2619.76,3076.28 -4470.71,3512.3 -129.08,30.4 -258.08,60.62 -386.85,90.76 -3430.26,803.08 -6709.23,1570.75 -7735.98,5564.3 -45.42,176.66 -115.38,459.22 -180.46,722.05 -539.59,2179.46 -722.54,2917.32 -3197.01,4702.64 634.88,517.39 1209.41,976.35 1678.18,1289.3 21.22,14.21 40.62,30.13 58.17,47.42 1298.26,-594.98 2795.59,-187.05 4286.63,622.25 167.35,-158.98 337.7,-310.12 508.86,-450.67 234.76,-192.77 467.4,-363.07 692.14,-503.65 218.53,-136.7 481.46,-165.63 746.07,-133.18 288.53,35.37 589.07,147.27 812.19,257.99 126.8,62.91 232.85,123.74 345.49,188.31 423.43,242.79 947.6,543.35 1993.58,630.86zm-20798.53 -2579.73c1147.86,143.52 1316.94,13.47 1689.81,-273.76 243.28,-187.41 552.59,-425.67 1104.86,-699.48 316.88,-157.09 686.98,-142.15 1037.42,-30.94 379.73,120.51 751.55,362.36 987.5,607.57 105.76,109.91 223.52,222.54 342.36,336.19 624.03,596.81 1274.7,1219.11 1175.95,2216.83 -30.06,303.85 -128.5,551.73 -279.81,750.87 -198.61,261.39 -476.25,424.28 -801.92,509.54 -289.61,75.82 -617.4,88.57 -957.21,54.94 -46.47,-4.6 -93.31,-10.14 -140.4,-16.5 3266.87,2586.44 8086.58,6137.31 10071.52,5636.01l-1779.68 -1198.5c-94.57,-58.01 -181.81,-116.73 -260.23,-175.25l-1167.12 -785.98c-608.27,-409.63 -1125.23,-930.78 -1411.72,-1504.33 -166.26,-332.84 -256.67,-685.69 -246.61,-1049.14 10.15,-366.79 122.73,-734.44 362.82,-1090.96 206.75,-307.01 508.28,-605.17 921.45,-885.69 -541.84,-385.91 -1157.48,-889.2 -1827.12,-1436.65 -2435.41,-1991.02 -5614.38,-4589.93 -7635,-3580.6 -644.31,321.84 -1056.38,661.86 -1286.21,1003.15 -151.53,225.01 -222.39,449.98 -228.45,669.08 -6.15,222.46 54.42,448.92 165.35,671 46.1,92.29 100.61,183.3 162.44,272.6zm2100.98 1801.26c43.52,13.34 85.49,34.43 123.87,63.55 475.16,361.03 1368.58,735.65 2152.23,813.19 251.36,24.88 485.07,17.73 679.09,-33.06 157.98,-41.35 286.21,-111.88 367.54,-218.92 63.33,-83.35 105.56,-197.45 120.43,-347.73 60.49,-611.2 -446.22,-1095.82 -932.19,-1560.59 -124.8,-119.35 -248.45,-237.61 -367.36,-361.19 -153.12,-159.13 -398.66,-317.43 -653.12,-398.19 -171.02,-54.27 -333.82,-70.4 -443.68,-15.94 -482.51,239.22 -755.65,449.62 -970.48,615.12 -398.58,307.04 -639.51,492.54 -1293.48,503.34 30.85,21.86 62.05,43.42 93.58,64.65 209.71,141.22 598.63,451.5 1123.57,875.77zm8982.41 4179.72c120.47,101.2 249.02,197.55 383.42,288.06l1452.64 978.26c500,298.16 1230.88,570.09 1885.28,634.86 251.36,24.87 485.08,17.73 679.11,-33.06 157.97,-41.36 286.21,-111.88 367.55,-218.93 63.32,-83.35 105.56,-197.45 120.43,-347.73 60.49,-611.19 -446.22,-1095.81 -932.18,-1560.58 -124.81,-119.36 -248.46,-237.62 -367.37,-361.2 -153.12,-159.13 -398.66,-317.43 -653.12,-398.19 -171.02,-54.27 -333.83,-70.4 -443.69,-15.94 -424.75,210.58 -704.23,391.94 -929.26,537.96 -513.69,333.33 -790.6,512.86 -1562.81,496.49zm13596.64 4958.49c605.99,223.61 1456.55,488.53 2357.48,754.05 374.48,102.19 1026.06,154.88 1634.42,75.4 335.79,-43.88 649.1,-127.76 874.88,-265.79 169.74,-103.77 283.35,-241.71 296.75,-421.16 8.42,-112.82 -16.18,-249.97 -81.49,-415.03 -100.02,-252.8 -338.84,-483.57 -629.87,-682.84 -445.51,-305.06 -998.02,-526.18 -1410.34,-654.18 -174.81,-54.24 -376.24,-85.12 -565.34,-76.76 -141.71,6.26 -271.1,34.31 -364.42,91.62 -629.42,386.48 -939.99,701.13 -1180.94,945.22 -298.06,301.97 -510.93,517.56 -931.13,649.47zm-451.68 -19699.64c-172.58,-137.2 -201.26,-388.36 -64.06,-560.94 137.2,-172.58 388.36,-201.26 560.94,-64.06 372.57,296.36 764.88,618.36 1133.67,921.06 2215.04,1818.04 3504.94,2876.74 6653.33,2726.29 220.05,-10.35 406.84,159.64 417.19,379.69 10.35,220.05 -159.64,406.84 -379.69,417.19 -3453.54,165.04 -4831.25,-965.73 -7197.09,-2907.55 -332.07,-272.56 -685.47,-562.61 -1124.29,-911.68z"/></g><text x="0" y="60015" fill="#000000" font-size="5px" font-weight="bold" font-family="'Helvetica Neue', Helvetica, Arial-Unicode, Arial, Sans-serif">Created by Olena Panasovska</text><text x="0" y="60020" fill="#000000" font-size="5px" font-weight="bold" font-family="'Helvetica Neue', Helvetica, Arial-Unicode, Arial, Sans-serif">from the Noun Project</text></svg>